<?xml version="1.0" encoding="utf-8"?>
<!-- Generator: Adobe Illustrator 15.0.2, SVG Export Plug-In . SVG Version: 6.00 Build 0)  -->
<!DOCTYPE svg PUBLIC "-//W3C//DTD SVG 1.1//EN" "http://www.w3.org/Graphics/SVG/1.1/DTD/svg11.dtd">
<svg version="1.1" id="layer1" xmlns="http://www.w3.org/2000/svg" xmlns:xlink="http://www.w3.org/1999/xlink" x="0px" y="0px"
	 width="800px" height="200px" viewBox="0 0 800 200" enable-background="new 0 0 800 200" xml:space="preserve">
<g>
	<path fill="#FFFFFF" d="M53.255,102.461l-1.998-0.428c-2.293-0.493-4.587,0.809-5.344,3.029c-3.19,9.404-5.872,17.357-8.013,23.735
		c-0.028-0.246-0.055-0.495-0.083-0.749c-1.315-11.972,1.787-30.895,6.75-41.268c4-8.104,4.827-9.988,4.292-14.827
		c-0.732-6.662-4.702-12.907-12.399-19.563c-7.14-6.523-12.348-9.063-18.576-9.063h-0.225c-1.818,0.018-3.457,1.104-4.186,2.772
		c-0.727,1.667-0.407,3.606,0.82,4.954c3.701,4.07,5.255,7.205,5.736,11.569c0.439,3.979,0.334,7.552-1.119,19.673
		c-2.797,22.57-3.279,37.753-1.669,52.401c1.447,13.159,4.646,25.94,8.512,34.088c3.836,8.628,8.978,13.005,15.279,13.005
		c0.477,0,0.959-0.026,1.448-0.08c5.596-0.62,11.718-5.105,10.548-15.726c-0.126-1.167-0.24-2.18-0.581-3.534
		c-1.035-5.249-1.035-5.258-1.138-6.17c-0.733-6.648,1.076-22.519,5.528-48.523C57.257,105.315,55.675,102.98,53.255,102.461"/>
	<path fill="#FFFFFF" d="M214.702,75.367l-1.387-0.493c-2.114-0.75-4.465,0.129-5.568,2.087c-0.776,1.377-1.485,2.763-2.174,4.103
		l-0.788,1.536c-2.762,5.361-4.131,8.022-5.224,10.157c0.877-10.16,4.187-20.832,9.567-30.877c2.32-4.229,3.361-6.435,3.619-9.817
		c0.8-10.567-10.794-24.375-22.153-26.38c-1.794-0.314-3.613,0.455-4.634,1.966c-1.021,1.514-1.053,3.488-0.082,5.034
		c3.091,4.931,3.567,7.81,3.334,10.861c-0.24,3.221-0.824,6.39-3.615,17.77c-2.955,12.041-4.48,20.726-5.109,29.041
		c-1.199,15.892,0.877,30.012,5.557,38.178c-0.691,0.003-1.39,0.032-2.085,0.1c-6.377,0.609-10.309,2.27-19.71,7.312
		c-1.703,0.938-2.642,1.409-3.125,1.633c-0.096-0.125-0.215-0.286-0.35-0.495c-0.949-1.448-2.633-2.248-4.352-2.059
		c-1.174,0.125-2.226,0.7-2.976,1.56c-6.522-6.817-17.23-9.872-26.605-11.563c-1.627-6.873-2.916-13.619-4.05-21.181
		c16.696-6.221,24.727-13.239,23.886-20.88c-0.686-6.208-7.861-10.847-13.823-10.847c-0.426,0-0.846,0.023-1.267,0.068
		c-3.257,0.361-5.276,2.266-7.327,4.458c-1.193,1.221-2.35,2.25-3.626,3.209c-0.094-2.209-0.147-4.128-0.083-4.788
		c0.38-4.304,0.402-4.561,0.227-6.132c-0.203-1.874-0.787-3.413-1.659-4.748c2.002-0.682,3.884-1.404,5.698-2.124
		c4.583-1.925,7.357-4.482,8.293-7.624c2.978,4.338,4.388,5.395,7.361,5.395c0.381,0,0.802-0.036,1.281-0.088
		c5.082-0.563,8.636-5.667,8.597-11.96c1.099,0.661,2.409,1.113,3.951,1.113c0.288,0,0.581-0.016,0.858-0.048
		c3.021-0.328,5.575-2.293,7.006-5.392c1.105-2.387,1.508-5.301,1.164-8.428c-0.826-7.534-7.11-11.026-11.854-13.032
		c-5.708-2.282-11.746-3.532-18.46-3.817c-1.993-0.096-3.831,1.131-4.529,3.01l-0.499,1.35c-0.825,2.232,0.177,4.727,2.32,5.763
		c0.62,0.297,1.23,0.619,1.837,0.962c-4.544-1.405-8.823-2.093-11.291-2.489c-1.868-0.306-3.741,0.575-4.708,2.207l-0.824,1.39
		c-1.261,2.133-0.617,4.879,1.463,6.228c1.418,0.921,2.785,1.91,4.076,2.942c-1.126-0.153-2.284-0.184-3.415-0.057
		c-1.898,0.207-3.87,1.031-5.577,2.325c-5.064,3.27-5.61,3.544-10.59,5.425c-7.928,2.894-16.775,5.125-23.101,5.817
		c-2.122,0.235-3.939,0.348-5.551,0.348c-3.551,0-6.471-0.543-10.07-1.876c-2.067-0.764-4.393,0.041-5.547,1.926l-0.959,1.573
		c-1.22,1.999-0.754,4.596,1.091,6.04c8.241,6.469,17.331,9.612,27.799,9.612c2.083,0,4.273-0.124,6.503-0.371
		c1.606-0.175,2.886-0.316,5.246-0.78c0.487,1.54,0.922,4.628,1.743,12.09l0.83,7.565c-2.504,0.638-5.163,1.091-8.343,1.438
		c-4.86,0.534-9.916,0.323-12.435-0.492c-0.054-0.017-0.105-0.032-0.158-0.048c-2.841-0.811-4.284-1.768-5.866-5.604
		c-0.914-2.217-3.37-3.36-5.656-2.644l-1.57,0.494c-2.196,0.691-3.549,2.894-3.169,5.165c1.722,10.335,8.095,22.651,28.67,22.649
		c2.098,0,4.342-0.128,6.676-0.384c1.389-0.152,2.484-0.325,3.887-0.575l1.627,14.82c-1.308,0.065-2.455,0.154-3.601,0.28
		c-21.435,2.359-35.788,15.042-34.127,30.155c1.357,12.337,12.302,20.001,28.563,20.001c2.083,0,4.266-0.126,6.49-0.37
		c10.519-1.156,19.438-4.913,24.47-10.31c0.039-0.041,0.075-0.081,0.11-0.123c3.129-3.603,4.817-7.246,5.309-11.86
		c3.144,1.729,6.022,3.848,9.556,6.938c3.747,3.146,6.636,5.256,10.702,4.807c5.28-0.58,8.894-5.534,9.023-11.911
		c1.59,0.9,3.272,1.442,4.878,1.442h0.001c0.243,0,0.483-0.01,0.729-0.035c2.195-0.212,4.106-1.291,5.691-3.217
		c4.664-5.72,10.665-9.055,14.186-9.392c0.201-0.018,0.399-0.028,0.595-0.028c0.854,0,3.123,0,3.477,3.727
		c0.545,5.696-5.571,11.459-15.964,15.041c-2.397,0.826-3.68,3.431-2.874,5.836l0.258,0.771c0.641,1.907,2.423,3.149,4.376,3.149
		c0.268,0,0.54-0.023,0.812-0.071c7.841-1.395,11.249-2.407,15.838-4.699c9.29-4.622,13.958-11.83,13.144-20.293
		c-0.301-3.121-1.417-5.902-3.139-8.224c3.999-1.541,6.724-5.51,7.126-10.838c0.079-0.997,0.164-2.126,0.079-3.393
		c-0.352-5.008-0.352-5.008-0.3-5.708c0.306-4.064,2.379-11.829,9.25-34.619C218.291,78.693,217.026,76.192,214.702,75.367
		 M94.925,144.769c1.555-0.173,3.191-0.261,4.863-0.261c1.571,0,3.113,0.077,4.55,0.228c0.136,2.116-0.006,2.998-0.371,4.169
		c-1.086,3.334-6.028,5.721-13.555,6.55c-1.167,0.128-2.287,0.193-3.328,0.193h-0.003c-3.35,0-7.347-0.773-7.587-2.951
		C79.168,149.707,84.461,145.914,94.925,144.769"/>
	<path fill="#FFFFFF" d="M322.457,54.486c-1.809-0.351-3.409-0.52-4.89-0.52c-6.174,0-10.351,3.265-11.459,8.966
		c-0.359,1.856-0.434,4.788-0.441,6.489c0.422,22.802-0.168,32.283-3.15,50.721c-0.301,1.851,0.545,3.627,2.022,4.599
		c-6.232,0.603-11.442,5.268-12.661,11.533c-0.039,0.201-0.054,0.4-0.083,0.601c-0.469-1.87-1.706-3.772-3.813-5.844
		c2.378-1.344,3.482-3.735,3.482-6.108c0-4.727-4.74-9.491-9.756-9.801c-0.094-0.009-0.19-0.011-0.286-0.011h-0.158
		c-0.439,0-1.177,0-2.184,0.103l-0.452,0.045c-0.418,0.042-0.79,0.09-1.059,0.093c-0.911,0-2.375-0.179-3.786-0.456
		c-2.326-0.477-3.16-0.867-4.969-2.313c-0.757-0.602-1.651-0.919-2.56-0.981c1.414-5.053,2.341-10.77,2.835-17.321l1.043-15.574
		l0.183-2.398c8.005-1.517,10.598-2.06,14.146-3.274c4.974-1.668,9.676-3.933,10.392-9.171c0.015-0.102,0.024-0.206,0.033-0.31
		l0.015-0.23c0.188-2.47-0.521-5.997-4.933-8.815c-2.499-1.736-5.93-2.989-8.772-3.204c-2.198-0.167-4.125,0.345-5.912,1.618
		c-1.168,0.883-2.125,1.515-3.248,2.065c0.396-2.537,0.781-4.164,1.208-5.188c1.666-3.967,1.895-4.739,2.056-6.89
		c0.2-2.623-0.507-6.426-5.083-9.711c-3.937-2.684-11.116-4.832-17.866-5.343c-1.341-0.099-2.418-0.146-3.385-0.146
		c-3.908,0-6.542,0.804-9.401,2.865c-1.405,1.015-2.125,2.728-1.865,4.439c0.259,1.71,1.456,3.134,3.099,3.685
		c7.864,2.642,8.252,4.023,8.756,5.808c0.323,1.287,0.673,6.068,0.165,16.107c-4.918,0.744-9.632,0.949-14.155,0.605
		c-4.674-0.353-7.566-1.642-11.459-5.102c-1.727-1.535-4.319-1.558-6.078-0.053l-1.247,1.072c-1.762,1.511-2.127,4.095-0.854,6.037
		c6.602,10.071,13.979,14.534,25.461,15.403c2.376,0.179,4.624,0.166,7.432,0c-0.009,0.115-0.018,0.226-0.025,0.336
		c-1.501,19.934-4.486,32.49-9.969,41.971c-4.309,7.408-8.796,11.808-17.792,17.435c-2.129,1.331-2.804,4.118-1.521,6.276
		l0.807,1.358c0.85,1.429,2.374,2.26,3.969,2.26c0.447,0,0.894-0.063,1.335-0.197c12.046-3.639,19.886-7.556,26.495-13.4
		c-0.037,0.324-0.082,0.644-0.082,1.001c0,6,4.096,12.713,9.57,12.713c0.124,0,0.244-0.003,0.362-0.007
		c-4.441,4.414-8.077,7.698-10.489,9.438c-1.864,1.372-3.767,3.279-3.767,7.021c0,6.082,3.44,10.668,8,10.668
		c3.93,0,6.018-2.979,7.385-4.932c4.89-6.896,7.834-9.64,9.6-10.553c0.466,3.184,0.477,3.254,0.657,4.147
		c0.018,0.098,0.042,0.197,0.068,0.294c0.797,2.957,2.037,5.146,3.849,6.836c3.038,2.938,7.868,4.366,14.762,4.366
		c3.822,0,13.974,0,13.974-7.764c0-4.672-5.46-9.807-10.436-9.807c-1.403,0-2.133,0.247-3.649,0.867
		c-0.776,0.304-2.323,0.626-3.664,0.626c-0.143,0-0.267-0.006-0.366-0.012c-1.094-3.573-1.34-4.302-2.244-5.793
		c-1.087-1.938-2.542-3.436-4.285-4.436c3.391-2.974,4.051-3.376,5.131-3.86c1.913-0.924,4.375-2.151,5.208-4.855
		c0.675,6.063,5.21,11.265,11.509,12.486c0.911,0.176,1.836,0.266,2.753,0.266c6.832,0,12.731-4.875,14.035-11.598
		c0.742-3.82-0.017-7.649-2.131-10.78c-1.329-1.97-3.111-3.544-5.2-4.625c1.743-0.343,3.201-1.68,3.613-3.517
		c3.271-14.487,7.418-27.591,12.679-40.065c4.735-11.238,4.824-11.453,5.384-14.336C335.157,64.229,334.69,56.867,322.457,54.486
		 M264.702,123.805c-0.629,0.271-1.195,0.515-1.655,0.707c-1.808,0.76-2.889,2.544-2.831,4.41c-0.591-0.391-1.281-0.641-2.014-0.726
		c1.658-2.142,3.105-4.463,4.375-6.975C263.226,122.211,263.89,123.033,264.702,123.805"/>
	<path fill="#FFFFFF" d="M774.902,70.566c-1.811-0.351-3.41-0.521-4.892-0.521c-6.174,0-10.351,3.267-11.456,8.966
		c-0.362,1.864-0.435,4.795-0.442,6.49c0.42,22.803-0.168,32.286-3.152,50.718c-0.302,1.853,0.548,3.631,2.026,4.602
		c-6.232,0.602-11.446,5.267-12.665,11.531c-1.498,7.754,3.585,15.284,11.336,16.788c0.908,0.18,1.835,0.268,2.753,0.268
		c6.83,0,12.732-4.88,14.033-11.6c0.744-3.82-0.013-7.65-2.127-10.782c-1.326-1.968-3.112-3.54-5.198-4.622
		c1.74-0.344,3.197-1.682,3.611-3.516c3.271-14.483,7.417-27.589,12.679-40.066c4.732-11.24,4.826-11.455,5.385-14.337
		C787.604,80.306,787.133,72.942,774.902,70.566"/>
	<path fill="#FFFFFF" d="M369.188,56.788c-2.66,1.759-3.583,2.356-6.927,4.509c-4.221,2.642-4.221,2.644-6.901,4.241
		c-2.168,1.292-2.896,4.086-1.639,6.271l0.91,1.579c0.842,1.47,2.388,2.316,4.003,2.316c0.54,0,1.087-0.095,1.62-0.293
		c19.491-7.3,28.91-10.039,37.324-10.852c7.049-0.678,8.359-0.93,10.753-2.073c0.111-0.053,0.225-0.112,0.333-0.175
		c3.466-2.018,5.464-5.819,5.093-9.693c-0.761-7.874-11.334-15.287-18.98-15.287c-0.397,0-0.792,0.019-1.195,0.058
		c-0.684,0.065-1.6,0.154-2.616,0.482c-4.525,1.114-5.134,1.17-7.307,1.38c-3.441,0.333-7.712,0.226-11.465-0.267
		c-6.021-0.871-9.826-2.258-14.042-5.114c-1.767-1.198-4.127-1.029-5.7,0.409l-1.113,1.015c-1.737,1.582-2.01,4.217-0.632,6.119
		C356.252,49.085,361.664,53.727,369.188,56.788"/>
	<path fill="#FFFFFF" d="M749.286,131.429c-0.334-1.944-1.861-3.462-3.81-3.779l-2.766-0.453c-0.691-0.11-1.398-0.065-2.072,0.136
		c-11.34,3.398-21.121,4.913-31.717,4.913c-8.508,0-18.253-0.996-41.701-4.259c-26.653-3.774-36.835-4.753-49.519-4.753
		c-10.172,0-19.318,0.752-27.172,2.234c-10.358,1.936-19.415,4.577-26.184,7.638c-0.858,0.389-1.547,1.021-2.018,1.787
		c-0.664-1.242-1.664-2.516-3.033-3.861c2.378-1.344,3.481-3.735,3.481-6.108c0-4.727-4.743-9.491-9.754-9.804
		c-0.096-0.006-0.192-0.009-0.291-0.009h-0.154c-0.441,0-1.176,0-2.185,0.103l-0.456,0.046c-0.419,0.042-0.788,0.09-1.057,0.093
		c-0.91,0-2.373-0.179-3.787-0.458c-1.86-0.383-2.771-0.716-3.986-1.574c1.406-3.993,2.237-8.26,2.433-12.785
		c0.916-21.191-13.375-38.44-35.335-43.51c1.366-4.453,2.265-8.53,2.369-10.972c0.176-4.017-1.315-7.48-4.385-10.248
		c-3.367-3.115-8.814-5.343-13.551-5.545c-4.558-0.209-7.955,1.062-13.326,3.731c-1.837,0.913-2.85,2.926-2.492,4.943l0.215,1.207
		c0.423,2.377,2.623,4.027,5.004,3.788c1.438-0.144,2.12-0.125,3.211-0.082c0.893,0.04,1.434,0.131,1.746,0.207
		c0.006,0.143,0.01,0.334,0,0.58c-0.129,2.993-0.647,6.305-1.783,11.268c-7.771,0.849-13.511,2.228-20.096,4.893
		c-2.88-10.495-7.962-16.466-18.227-22.167c-1.558-0.867-3.474-0.759-4.925,0.279l-1.24,0.883c-1.063,0.758-1.757,1.933-1.902,3.231
		c-0.152,1.298,0.259,2.599,1.122,3.581c4.807,5.458,6.358,8.487,8.467,22.775c-6.534,4.583-10.983,8.831-15.011,14.272
		c-2.567,3.596-4.58,7.545-5.926,11.418c-3.216-10.425-9.447-18.121-18.127-22.152c-5.24-2.432-10.863-3.374-16.826-2.796
		c-7.763,0.753-14.308,3.41-25.937,10.53c-8.332,5.102-13.143,7.896-14.716,8.046c-3.577,0.336-5.794-4.283-6.553-6.244
		c-0.632-1.634-2.127-2.771-3.871-2.936c-1.751-0.169-3.428,0.67-4.355,2.155c-1.937,3.105-2.983,5.69-2.591,9.717
		c1.082,11.207,12.566,22.623,22.759,22.623c0.429,0,0.859-0.02,1.281-0.062c5.102-0.49,7.691-2.973,10.997-7.746
		c4.638-6.929,6.625-9.304,9.836-12.455c4.687-4.417,8.786-6.823,12.175-7.152c0.246-0.025,0.489-0.035,0.727-0.035
		c7.427,0,9.508,13.27,10.058,18.978c1.145,11.888-0.355,23.928-4.341,34.807c-4.638,12.578-11.042,21.226-23.634,31.905
		c-1.919,1.627-2.185,4.49-0.596,6.442l1.03,1.261c0.897,1.101,2.224,1.696,3.582,1.696c0.648,0,1.307-0.135,1.926-0.421
		c13.831-6.356,22.668-12.323,30.508-20.597c11.604-12.274,18.281-28.127,19.063-44.595c0.228,0.288,0.446,0.58,0.692,0.862
		c2.324,2.539,2.324,2.539,2.709,6.091c1.052,9.567,6.551,11.804,10.98,11.997c4.396,0.187,8.608-1.255,14.18-4.881
		c3.107-1.97,5.87-4.021,8.266-6.128c4.133,4.328,8.241,6.604,12.259,6.774c5.476,0.26,9.568-3.399,9.791-8.46
		c0.173-3.967-1.404-6.549-5.23-11.177c-0.983-1.201-1.596-1.961-2.095-2.649c8.531-11.038,15.388-22.934,21.798-37.812
		c3.519,0.961,6.034,2.404,8.552,4.798c4.866,4.616,7.246,11.533,6.878,20.008c-0.396,9.162-3.764,17.362-9.965,24.322
		c-7.46,8.129-15.384,12.265-32.608,17.023c-2.259,0.621-3.693,2.838-3.339,5.153l0.209,1.343c0.349,2.263,2.293,3.917,4.563,3.917
		c0.065,0,0.127-0.003,0.189-0.003c14.64-0.598,24.369-2.292,33.548-5.841c4.491-1.704,8.527-3.775,12.134-6.145
		c-0.003,0.132-0.031,0.246-0.031,0.383c0,6.003,4.093,12.715,9.57,12.715c0.125,0,0.244-0.003,0.361-0.007
		c-4.442,4.419-8.079,7.696-10.487,9.439c-1.865,1.371-3.768,3.278-3.768,7.021c0,6.082,3.439,10.668,7.997,10.668
		c3.931,0,6.021-2.979,7.388-4.932c4.887-6.896,7.834-9.64,9.6-10.555c0.465,3.188,0.477,3.257,0.656,4.154
		c0.019,0.099,0.044,0.193,0.067,0.289c0.797,2.959,2.034,5.146,3.849,6.836c3.042,2.938,7.874,4.366,14.764,4.366
		c3.821,0,13.972,0,13.972-7.764c0-4.672-5.46-9.805-10.432-9.805c-1.407,0-2.136,0.242-3.65,0.865
		c-0.776,0.301-2.326,0.626-3.665,0.626c-0.146,0-0.266-0.008-0.365-0.012c-1.099-3.579-1.341-4.306-2.245-5.795
		c-1.086-1.935-2.541-3.434-4.284-4.434c3.39-2.973,4.052-3.376,5.129-3.86c1.908-0.921,4.368-2.146,5.202-4.842
		c0.631,0.622,1.431,1.074,2.343,1.254l2.768,0.552c0.756,0.148,1.533,0.107,2.267-0.118c9.314-2.883,22.423-4.898,31.88-4.898
		c9.391,0,20.628,1.168,46.24,4.808c23.38,3.338,34.397,4.354,47.154,4.354c10.483,0,18.34-0.701,26.259-2.347
		c11.205-2.311,19.628-4.978,25.03-7.932C748.678,135.313,749.617,133.373,749.286,131.429 M471.912,89.153
		c-0.445-1.433-0.823-2.81-1.188-4.236c-1.281-5.36-1.91-7.977-2.313-9.592c4.063-2.333,7.722-3.75,12.345-4.707
		C478.22,77.229,475.262,83.421,471.912,89.153 M447.901,112.896c-0.782-0.866-2.047-3.511-1.916-6.584
		c0.262-6.06,2.072-11.281,5.833-16.453c1.143,6.202,2.623,11.835,4.595,17.571C452.29,111.086,449.22,112.598,447.901,112.896
		 M535.761,123.537c0.087,0.089,0.163,0.182,0.255,0.268c-0.23,0.101-0.443,0.191-0.655,0.282
		C535.496,123.905,535.629,123.722,535.761,123.537 M531.546,128.554c-0.007,0.122-0.019,0.244-0.016,0.368
		c-0.072-0.048-0.16-0.075-0.234-0.116C531.379,128.719,531.464,128.639,531.546,128.554"/>
	<path fill="#FFFFFF" d="M568.215,111.99c-0.004,0.077-0.008,0.155-0.008,0.23v0.306c0,1.773,0.705,5.897,7.241,5.897
		c1.185,0,3.396-0.06,4.992-0.499c1.168-0.354,3.923-1.604,4.188-5.578c0.007-0.127,0.01-0.255,0.007-0.384
		c-0.007-0.449-0.013-0.886-0.019-1.302c0.408,0.054,0.846,0.083,1.313,0.083c2.137,0,7.446,0,8.515-4.572h7.343
		c0.514,0.994,1.329,1.846,2.506,2.383c0.575,1.146,1.618,2.038,2.923,2.391c1.045,0.285,1.627,0.5,1.941,0.635
		c0.006,0.094,0.013,0.204,0.016,0.336c0,5.533,4.141,5.962,5.408,5.962c2.355,0,5.124-0.59,7.089-1.508
		c3.661-1.604,5.511-4.312,5.813-8.513c0.007-0.132,0.009-0.263,0.007-0.396c-0.148-10.754-0.183-13.956-0.183-14.747v-25.06
		c1.212-0.97,2.258-2.378,2.258-4.504c0-2.221-1.308-3.525-2.085-4.305c-0.173-0.166-0.35-0.32-0.54-0.46
		c-3.142-2.295-3.142-2.295-5.315-3.929c-1.867-1.402-4.488-1.193-6.107,0.494c-0.983,1.024-1.548,1.628-2.211,2.362h-31.772
		c-2.044-1.019-3.199-1.578-5.107-2.496l-1.715-0.827c-1.497-0.722-3.269-0.584-4.635,0.361c-1.368,0.942-2.122,2.549-1.975,4.205
		c0.338,3.832,0.47,9.497,0.47,20.199C568.572,96.81,568.521,105.894,568.215,111.99"/>
	<path fill="#FFFFFF" d="M629.767,86.801c0,8.188-0.105,15.159-0.364,24.2c0,2.385,0.914,6.386,7.056,6.386
		c3.229,0,5.604-0.547,7.065-1.627c1.329-0.969,2.12-2.324,2.354-4.041h25.528c0.003,0.096,0.009,0.194,0.021,0.289
		c0.253,2.537,1.634,5.563,6.791,5.563c1.709,0,4.209-0.238,5.655-0.763c0.065-0.023,0.131-0.049,0.198-0.074
		c1.628-0.679,2.789-1.858,3.397-3.406c0.126,0.485,0.321,0.961,0.613,1.4l0.365,0.545c1.191,1.785,3.456,2.516,5.468,1.757
		c8.531-3.211,12.423-5.437,18.801-11.157c-0.043,2.55-0.111,5.128-0.171,6.716c-0.003,0.062-0.003,0.119-0.003,0.181
		c0,3.994,2.455,6.021,7.301,6.021c2.463,0,9.006,0,9.006-6.142l-0.031-1.948c-0.06-2.732-0.098-4.693-0.122-6.535
		c2.616,2.279,4.512,4.456,6.498,7.34c1.477,2.124,1.536,2.208,2.051,2.81c0.17,0.199,0.361,0.385,0.561,0.553
		c0.728,0.601,2.241,1.604,4.229,1.604c4.37,0,7.664-4.264,7.664-9.921c0-4.541-2.41-7-4.915-8.609h3.283
		c2.934,0,5.229-2.188,5.229-4.98c0-0.986-0.286-2.449-1.657-3.819c-0.092-0.095-0.19-0.183-0.295-0.271l-0.405-0.341
		c-2.393-2.013-3.382-2.846-6.21-4.947c-0.327-0.244-0.676-0.438-1.037-0.581c-0.083-3.967-0.098-6.635-0.138-16.249
		c1.128-0.955,2.123-2.344,2.123-4.337c0-1.818-0.869-3.417-2.676-4.818c-2.092-1.539-2.774-2.034-4.929-3.573
		c-1.776-1.27-4.205-1.123-5.813,0.36c-0.997,0.918-1.545,1.434-2.191,2.07h-13.098c-2.508-1.249-3.703-1.815-6.782-3.07
		c-1.482-0.602-3.165-0.399-4.458,0.54c-1.292,0.938-2.009,2.478-1.894,4.07c0.062,0.816,0.104,1.456,0.137,2.088
		c-1.185-0.233-2.44-0.356-3.637-0.475c-0.413-0.054-0.919-0.112-1.515-0.177c-0.735-0.081-1.615-0.179-2.633-0.313
		c-1.396-0.19-2.795,0.278-3.809,1.251c-1.012,0.972-1.528,2.356-1.398,3.755c0.285,3.078,0.285,3.6,0.285,12.313
		c0,7.409,0,8.952-0.304,18.777c0,2.523,1.103,5.507,6.182,5.813c-2.117,2.481-4.317,4.506-8.099,7.523
		c-0.464,0.369-0.833,0.811-1.116,1.293c-0.222-7.434-0.34-16.712-0.34-26.945c0-1.561,0-3.887,0.026-6.745
		c1.337-0.927,2.533-2.378,2.533-4.656c0-5.142-5.459-5.707-9.387-6.111l-4.563-0.546c-1.396-0.166-2.784,0.31-3.781,1.294
		c-1,0.984-1.497,2.368-1.357,3.762c0.22,2.123,0.343,4.728,0.343,7.151v24.153h-4.907V65.548c1.427-0.912,2.683-2.375,2.683-4.777
		c0-5.254-3.663-5.609-14.53-6.669c-1.377-0.131-2.734,0.355-3.712,1.328c-0.979,0.975-1.469,2.334-1.336,3.709
		c0.238,2.505,0.406,6.486,0.406,9.68v32.383h-4.054V75.939c1.248-0.904,2.319-2.303,2.319-4.5c0-1.003-0.318-3.497-3.28-4.98
		c-0.097-0.049-0.192-0.093-0.292-0.134c-1.189-0.498-1.608-0.547-6.722-1.176l-3.447-0.426c-1.396-0.179-2.789,0.297-3.792,1.274
		c-1.004,0.978-1.512,2.359-1.375,3.755C629.71,73.332,629.767,77.149,629.767,86.801"/>
	<path fill="#003461" d="M52.286,106.977c-4.451,25.979-6.38,42.425-5.569,49.81c0.128,1.117,0.128,1.117,1.226,6.684
		c0.288,1.106,0.374,1.904,0.499,3.028c0.687,6.257-1.654,10.087-6.466,10.619c-4.809,0.524-8.767-2.936-12.002-10.212
		c-3.805-8.021-6.782-20.361-8.141-32.713c-1.552-14.119-1.09-29.108,1.662-51.331c1.439-12.006,1.642-16.085,1.128-20.747
		c-0.584-5.288-2.482-9.298-6.912-14.169c4.863-0.049,9.139,1.92,15.634,7.854c7.001,6.055,10.343,11.366,10.925,16.66
		c0.371,3.369,0.139,4.208-3.844,12.277c-5.413,11.312-8.607,30.984-7.199,43.818c0.635,5.775,1.524,9.41,4.099,16.601
		c1.827-5.563,6.095-18.37,12.967-38.607L52.286,106.977z M60.952,55.85c5.757,2.131,10.351,2.603,17.731,1.789
		c6.737-0.74,15.902-3.047,24.178-6.071c5.458-2.061,6.221-2.463,11.678-5.989c1.198-0.945,2.445-1.402,3.412-1.509
		c4.81-0.53,10.42,3.241,10.858,7.249c0.3,2.724-1.589,4.717-5.784,6.479c-4.511,1.794-8.576,3.216-13.493,4.242
		c4.878,3.036,6.357,4.663,6.657,7.391c0.124,1.119,0.124,1.119-0.24,5.22c-0.162,1.477,0.133,7.126,0.465,13.096
		c4.924-2.487,7.941-4.603,11.149-7.878c2.034-2.176,3.09-2.939,4.531-3.097c4.173-0.457,9.587,3.007,9.991,6.693
		c0.604,5.459-8.284,11.792-24.403,17.295c1.573,11.359,3.342,20.093,5.388,28.31c20.648,3.251,30.443,9.645,31.665,20.711
		c0.526,4.814-1.63,8.789-4.844,9.141c-1.922,0.212-3.296-0.451-7.229-3.751c-6.106-5.337-10.627-8.086-17.241-10.608
		c0.827,7.536-0.334,11.726-4.08,16.037c-4.215,4.521-12.132,7.828-21.601,8.874c-17.162,1.884-28.702-4.156-29.956-15.546
		c-1.374-12.515,11.113-22.977,30.041-25.062c2.248-0.246,4.514-0.331,8.236-0.412c-0.161-1.451-0.264-2.413-0.319-2.891
		l-2.028-18.451c-0.055-0.479-0.176-1.601-0.371-3.369c-4.617,0.83-6.04,1.15-8.446,1.42c-17.808,1.949-27.888-4.084-30.281-18.437
		l1.57-0.495c1.99,4.82,4.343,6.992,8.868,8.283c3.367,1.092,8.91,1.292,14.364,0.692c4.65-0.51,8.628-1.27,12.851-2.708
		l-1.247-11.392c-1.399-12.677-1.734-14.258-4.282-16.743c-4.273,0.955-5.72,1.117-7.806,1.346
		c-12.348,1.359-22.065-1.312-30.947-8.283L60.952,55.85z M94.416,140.178c-12.512,1.371-20.233,6.447-19.512,13.021
		c0.58,5.294,6.709,7.872,16.014,6.845c9.626-1.057,15.741-4.488,17.441-9.712c0.843-2.693,0.791-4.632,0.244-9.602
		C104.611,139.865,99.231,139.645,94.416,140.178 M120.117,31.33c16.201,2.604,24.711,7.67,25.537,15.21
		c0.498,4.492-1.52,8.286-4.407,8.605c-2.086,0.233-2.086,0.233-7.764-8.565c-3.165-5.171-8.417-10.119-14.187-13.86L120.117,31.33z
		 M132.816,22.787c6.365,0.272,11.855,1.456,16.946,3.491c5.79,2.453,8.536,5.235,8.976,9.247c0.508,4.647-1.188,8.411-4.078,8.725
		c-1.603,0.18-3.013-0.805-4.616-3.55c-4.553-7.458-10.872-13.249-17.729-16.563L132.816,22.787z"/>
	<path fill="#003461" d="M174.515,163.505c12.617-4.347,19.823-11.865,19.062-19.847c-0.511-5.3-4.062-8.342-9.117-7.854
		c-5.364,0.514-12.371,4.997-17.322,11.071c-0.771,0.933-1.581,1.442-2.558,1.534c-2.983,0.283-7.581-4.067-7.913-7.539
		c-0.031-0.304,0.001-0.613,0.248-1.259c1.369,2.089,2.612,2.89,4.134,2.743c1.037-0.102,2.043-0.504,5.426-2.366
		c9.36-5.018,12.563-6.247,17.922-6.76c8.281-0.794,14.876,3.857,15.571,11.045c0.62,6.456-3.094,11.98-10.605,15.713
		c-4.108,2.055-7.095,2.956-14.589,4.291L174.515,163.505z"/>
	<path fill="#003461" d="M213.157,79.72c-7.262,24.097-9.101,31.219-9.43,35.604c-0.079,1.034-0.079,1.034,0.295,6.377
		c0.061,0.912-0.003,1.814-0.075,2.715c-0.352,4.646-3.036,7.554-6.903,7.262c-2.579-0.193-4.802-1.656-6.524-4.64
		c-4.523-7.086-6.584-20.992-5.426-36.335c0.624-8.254,2.177-16.832,4.99-28.292c2.808-11.458,3.464-14.909,3.735-18.52
		c0.35-4.642-0.785-8.487-4.03-13.661c8.96,1.582,18.967,13.36,18.352,21.484c-0.176,2.322-0.806,3.832-3.062,7.946
		c-5.741,10.715-9.345,22.377-10.181,33.465c-0.526,6.968-0.071,11.28,1.667,15.69c1.368-2.618,1.368-2.618,3.649-7.111
		c3.209-6.374,3.209-6.374,8.679-16.99c0.909-1.749,1.828-3.624,2.878-5.486L213.157,79.72z M221.039,59.568
		c4.616,4.104,8.509,5.825,14.181,6.255c6.064,0.456,12.318,0.02,18.904-1.298c0.672-10.583,0.606-18.369-0.089-21.144
		c-1.229-4.376-3.798-6.387-11.767-9.061c2.605-1.879,4.711-2.238,9.738-1.86c5.933,0.45,12.402,2.367,15.611,4.552
		c2.214,1.59,3.247,3.358,3.081,5.549c-0.107,1.422-0.126,1.675-1.71,5.448c-0.944,2.265-1.617,5.97-2.457,13.693
		c5.959-1.626,8.099-2.499,11.538-5.095c0.819-0.583,1.739-0.776,2.776-0.697c2.062,0.155,4.714,1.132,6.562,2.441
		c2.104,1.319,3.029,2.817,2.893,4.625c-0.01,0.128-0.01,0.128-0.019,0.259c-0.298,2.182-2.229,3.725-7.284,5.419
		c-3.728,1.275-6.222,1.735-17.018,3.773l-0.447,5.93l-1.049,15.612c-1.207,15.992-4.979,26.471-12.448,34.339
		c-6.621,6.894-14.337,11.235-27.744,15.281l-0.805-1.358c9.799-6.13,14.711-11.079,19.335-19.029
		c5.819-10.067,9.015-23.185,10.581-43.946c0.099-1.29,0.224-2.969,0.299-5.684c-5.611,0.483-8.611,0.648-11.965,0.396
		c-9.927-0.751-16.131-4.462-21.946-13.33L221.039,59.568z"/>
	<path fill="#003461" d="M269.237,154.244c3.064-1.416,4.399-1.812,6.366-1.812c2.671,0,4.716,1.183,6.054,3.617
		c0.63,1.026,0.709,1.18,1.886,5.033c0.631,2.121,2.044,3.065,4.717,3.065c1.809,0,3.931-0.392,5.346-0.944
		c1.338-0.548,1.416-0.548,1.967-0.548c2.436,0,5.818,3.063,5.818,5.188c0,2.201-2.91,3.146-9.357,3.146
		c-5.66,0-9.434-1.024-11.554-3.072c-1.26-1.174-2.045-2.67-2.597-4.714c-0.157-0.783-0.157-0.783-0.63-4.011
		c-0.392-3.063-1.335-4.243-3.224-4.243c-3.931,0-8.174,3.692-14.697,12.894c-1.65,2.357-2.44,2.986-3.619,2.986
		c-1.885,0-3.382-2.67-3.382-6.05c0-1.495,0.398-2.205,1.889-3.305c4.245-3.063,11.635-10.222,20.202-19.416
		c2.99-3.225,4.327-4.875,4.327-5.349c0-0.235-0.239-0.391-0.552-0.391c-1.336,0-9.434,3.692-13.363,6.127
		c-1.651,1.024-2.281,1.26-3.227,1.26c-2.357,0-4.951-4.243-4.951-8.095c0-0.945,0.235-1.571,1.025-2.832
		c1.333,3.617,2.355,4.801,4.32,4.801c1.651,0,4.088-0.632,12.185-3.068c3.461-1.023,3.461-1.023,4.875-2.048
		c0.708-0.47,1.024-0.626,1.495-0.626c0.941,0,2.125,0.626,3.382,1.729c2.278,2.045,3.459,3.772,3.459,5.032
		c0,1.1-0.472,1.493-2.91,2.67c-2.281,1.022-2.913,1.573-15.33,12.739L269.237,154.244z M265.933,116.191
		c2.361,1.887,3.854,2.596,6.92,3.228c1.569,0.312,3.381,0.553,4.716,0.553c0.469,0,1.18-0.083,1.963-0.162
		c0.787-0.079,1.34-0.079,1.731-0.079h0.158c2.516,0.158,5.423,2.832,5.423,5.192c0,1.727-1.178,2.594-3.537,2.594
		c-0.237,0-0.237,0-1.964-0.159c-0.553-0.078-1.025-0.078-1.416-0.078c-2.99,0-6.213,0.468-14.781,2.355l-0.313-0.862
		c2.436-1.025,8.098-3.538,10.062-4.479c-2.908-0.947-4.72-1.89-6.602-3.46c-1.181-1.024-1.886-1.967-2.987-4.091L265.933,116.191z"
		/>
	<path fill="#003461" d="M540.551,154.244c3.065-1.416,4.4-1.812,6.365-1.812c2.673,0,4.717,1.183,6.055,3.617
		c0.631,1.026,0.708,1.18,1.888,5.033c0.626,2.121,2.04,3.065,4.715,3.065c1.81,0,3.932-0.392,5.346-0.944
		c1.338-0.548,1.414-0.548,1.97-0.548c2.435,0,5.813,3.063,5.813,5.188c0,2.201-2.908,3.146-9.354,3.146
		c-5.663,0-9.436-1.024-11.555-3.072c-1.261-1.174-2.046-2.67-2.597-4.714c-0.159-0.783-0.159-0.783-0.63-4.011
		c-0.393-3.063-1.335-4.243-3.225-4.243c-3.931,0-8.175,3.692-14.696,12.894c-1.652,2.357-2.442,2.986-3.621,2.986
		c-1.886,0-3.379-2.67-3.379-6.05c0-1.495,0.394-2.205,1.888-3.305c4.243-3.063,11.634-10.222,20.202-19.416
		c2.99-3.225,4.325-4.875,4.325-5.349c0-0.235-0.237-0.391-0.552-0.391c-1.335,0-9.433,3.692-13.361,6.127
		c-1.65,1.024-2.281,1.26-3.227,1.26c-2.357,0-4.953-4.243-4.953-8.095c0-0.945,0.235-1.571,1.025-2.832
		c1.333,3.617,2.355,4.801,4.32,4.801c1.652,0,4.09-0.632,12.188-3.068c3.46-1.023,3.46-1.023,4.871-2.048
		c0.71-0.47,1.023-0.626,1.495-0.626c0.943,0,2.127,0.626,3.383,1.729c2.279,2.045,3.459,3.772,3.459,5.032
		c0,1.1-0.469,1.493-2.909,2.67c-2.281,1.022-2.912,1.573-15.331,12.739L540.551,154.244z M537.246,116.191
		c2.36,1.887,3.854,2.596,6.918,3.228c1.572,0.312,3.384,0.553,4.717,0.553c0.473,0,1.181-0.083,1.966-0.162
		c0.786-0.079,1.338-0.079,1.731-0.079h0.153c2.52,0.158,5.428,2.832,5.428,5.192c0,1.727-1.179,2.594-3.537,2.594
		c-0.237,0-0.237,0-1.966-0.159c-0.551-0.078-1.023-0.078-1.416-0.078c-2.984,0-6.209,0.468-14.782,2.355l-0.31-0.862
		c2.437-1.025,8.098-3.538,10.062-4.479c-2.91-0.947-4.719-1.89-6.604-3.46c-1.179-1.024-1.885-1.967-2.987-4.091L537.246,116.191z"
		/>
	<path fill="#003461" d="M307.075,120.879c2.99-18.477,3.644-27.996,3.209-51.543c0.014-1.902,0.115-4.263,0.359-5.529
		c0.891-4.591,4.394-6.055,10.933-4.786c6.544,1.272,9.127,3.916,8.236,8.505c-0.466,2.412-0.466,2.412-5.104,13.423
		c-5.293,12.55-9.529,25.781-12.928,40.842L307.075,120.879z M315.466,140.85c-1.022,5.279-6.091,8.701-11.373,7.679
		c-5.282-1.027-8.704-6.095-7.681-11.374c1.025-5.283,6.095-8.703,11.377-7.682C313.184,130.519,316.514,135.453,315.466,140.85"/>
	<path fill="#003461" d="M759.519,136.957c2.987-18.476,3.645-27.994,3.213-51.541c0.012-1.904,0.112-4.266,0.357-5.529
		c0.893-4.592,4.392-6.055,10.932-4.787c6.543,1.271,9.128,3.915,8.239,8.506c-0.47,2.409-0.47,2.409-5.109,13.422
		c-5.291,12.55-9.528,25.778-12.927,40.842L759.519,136.957z M767.91,156.926c-1.022,5.283-6.091,8.704-11.374,7.681
		c-5.28-1.026-8.703-6.096-7.681-11.376c1.026-5.28,6.099-8.701,11.379-7.679C765.629,146.598,768.959,151.531,767.91,156.926"/>
	<path fill="#003461" d="M377.345,175.771c13.266-11.249,20.073-20.517,24.984-33.83c4.186-11.431,5.829-24.128,4.604-36.849
		c-1.501-15.566-7.149-23.932-15.828-23.096c-4.492,0.437-9.363,3.17-14.896,8.388c-3.591,3.519-5.756,6.142-10.51,13.248
		c-2.917,4.209-4.463,5.416-7.601,5.718c-7.784,0.751-18.121-9.276-19.002-18.407c-0.245-2.541,0.211-4.101,1.915-6.83
		c2.417,6.261,6.518,9.644,11.307,9.178c2.392-0.229,5.555-1.892,16.684-8.706c10.838-6.636,16.935-9.189,23.97-9.871
		c5.086-0.491,9.845,0.261,14.43,2.389c9.963,4.627,16.271,15.196,17.658,29.562c1.775,18.408-4.724,37.16-17.606,50.791
		c-7.403,7.813-15.771,13.457-29.079,19.574L377.345,175.771z M355.561,37.693c4.683,3.174,9.084,4.864,15.973,5.862
		c3.98,0.521,8.525,0.686,12.571,0.294c2.394-0.232,3.139-0.307,8.152-1.542c0.589-0.21,1.188-0.265,1.784-0.323
		c5.84-0.563,14.616,5.842,15.119,11.078c0.201,2.098-0.956,4.172-2.818,5.256c-1.587,0.757-2.17,0.965-9.205,1.642
		c-8.831,0.854-18.383,3.588-38.504,11.124l-0.909-1.579c2.716-1.619,2.716-1.619,6.989-4.294c4.693-3.022,4.693-3.022,11.082-7.264
		c1.994-1.25,1.994-1.25,4.419-2.692c-12.179-2.602-18.614-6.66-25.767-16.546L355.561,37.693z"/>
	<path fill="#003461" d="M444.65,42.664c10.674,5.93,14.82,11.706,17.196,24.605c9.385-4.388,15.725-6.118,27.097-7.089
		c1.781-7.254,2.5-11.487,2.666-15.35c0.164-3.855-1.498-5.396-6.155-5.596c-1.199-0.052-1.998-0.089-3.872,0.097l-0.213-1.205
		c5.175-2.574,7.743-3.398,11.068-3.252c3.594,0.152,8.05,1.948,10.614,4.321c2.178,1.963,3.02,4.134,2.911,6.659
		c-0.116,2.661-1.573,8.599-3.84,14.761c22.665,2.98,37.689,19.229,36.8,39.719c-0.72,16.767-11.015,29.779-29.313,36.721
		c-8.678,3.355-17.808,4.963-32.099,5.544l-0.203-1.344c17.942-4.955,26.667-9.507,34.781-18.353
		c6.862-7.7,10.727-16.869,11.176-27.245c0.42-9.712-2.418-17.966-8.313-23.556c-3.965-3.769-8.013-5.674-14.504-6.76
		c-7.146,17.289-14.785,30.556-24.645,42.792c1.361,2.455,1.996,3.287,4.142,5.909c3.546,4.289,4.286,5.785,4.187,8.047
		c-0.107,2.526-2.18,4.172-4.974,4.05c-3.592-0.155-7.733-3.129-12.144-8.925c-2.797,3.081-6.532,6.12-11.057,8.987
		c-4.8,3.126-8.176,4.317-11.506,4.17c-3.995-0.174-6.016-2.662-6.59-7.886c-0.475-4.416-0.836-5.367-3.89-8.706
		c-2.539-2.9-3.857-6.295-3.712-9.751c0.242-5.459,2.928-12.137,6.898-17.694c4.106-5.555,8.689-9.756,16.231-14.764
		c-2.338-16.762-3.883-21.096-9.981-28.023L444.65,42.664z M441.369,106.111c-0.233,5.448,2.712,11.314,5.906,11.454
		c3.322,0.142,8.941-3.35,14.504-8.835c-3.458-9.35-5.48-17.969-6.865-29.225C446.023,87.915,441.803,96.132,441.369,106.111
		 M466.231,85.991c1.142,4.446,2.317,8.097,4.62,13.394c6.964-9.962,12.67-21.713,16.819-34.457
		c-10.711,1.134-16.663,3.142-24.616,8.26C463.749,75.62,463.749,75.62,466.231,85.991"/>
	<path fill="#003461" d="M566.251,137.313c6.53-2.953,15.238-5.456,25.13-7.307c7.717-1.454,16.623-2.154,26.321-2.154
		c12.266,0,22.357,0.951,48.872,4.707c23.744,3.306,33.641,4.304,42.348,4.304c11.082,0,21.168-1.549,33.043-5.107l2.768,0.452
		c-4.946,2.704-13.059,5.259-23.744,7.46c-7.718,1.603-15.234,2.253-25.327,2.253c-12.664,0-23.347-1.003-46.5-4.307
		c-25.725-3.656-37.201-4.855-46.896-4.855c-9.895,0-23.548,2.103-33.241,5.106L566.251,137.313z"/>
	<path fill="#003461" d="M579.836,98.688c0,1.1,0,2.073,0.183,13.35c-0.06,0.915-0.308,1.281-0.913,1.464
		c-0.673,0.186-2.137,0.303-3.657,0.303c-2.074,0-2.623-0.241-2.623-1.278v-0.304c0.303-6.034,0.365-14.69,0.365-33.467
		c0-10.425-0.12-16.458-0.488-20.607c3.416,1.649,4.45,2.134,7.744,3.782h34.93c1.46-1.648,1.952-2.196,3.473-3.782
		c2.195,1.649,2.195,1.649,5.364,3.966c0.491,0.487,0.734,0.731,0.734,1.036c0,0.609-0.487,1.036-2.256,1.889v27.674
		c0,1.16,0.06,6.098,0.185,14.813c-0.185,2.563-0.979,3.719-3.109,4.637c-1.405,0.67-3.601,1.097-5.185,1.097
		c-0.73,0-0.79-0.122-0.79-1.344c-0.063-3.23-1.098-4.268-5.365-5.427v-0.669c4.084,0.246,4.203,0.246,6.887,0.368
		c0.61,0,0.733-0.185,0.733-0.733V63.212h-36.211V98.688z M605.927,77.535c1.583-1.826,2.074-2.378,3.599-4.206
		c2.435,1.95,3.169,2.56,5.547,4.632c0.182,0.187,0.241,0.31,0.241,0.487c0,0.185-0.181,0.368-0.428,0.368h-14.2v21.458h4.996
		V88.265c0-2.804-0.061-3.597-0.303-5.608c3.719,0.305,7.071,0.671,7.741,0.914c0.428,0.122,0.608,0.305,0.608,0.611
		c0,0.671-0.489,0.974-2.131,1.522c-0.064,4.208-0.064,5.915-0.064,8.353c0,3.231,0,4.878,0.124,8.533
		c0,0.915-0.124,1.219-0.731,1.522c-0.733,0.246-1.952,0.428-3.539,0.428c-1.397,0-1.705-0.303-1.705-1.524v-1.46h-15.665v2.863
		c0,1.402-0.671,1.708-4.086,1.708c-1.4,0-1.948-0.306-1.948-1.219v-0.368c0.304-4.328,0.366-6.155,0.366-10.849
		c0-5.426-0.063-7.926-0.307-11.156c1.583,0.182,2.925,0.305,3.656,0.427c4.025,0.367,4.45,0.487,4.45,1.16
		c0,0.546-0.365,0.73-2.132,1.399v14.753h4.938V78.815h-9.329c-0.973,0-1.826,0.06-3.839,0.308l-0.489-2.075
		c1.587,0.304,3.475,0.487,4.88,0.487h12.438c2.131-4.206,3.897-9.204,4.63-13.287c8.473,2.866,8.657,2.987,8.657,3.656
		c0,0.61-0.487,0.791-2.804,1.159c-4.269,4.632-5.671,6.034-8.353,8.472H605.927z M585.931,64.551
		c7.317,3.111,9.57,4.876,9.57,7.499c0,2.069-2.134,4.449-4.023,4.449c-0.913,0-1.397-0.488-1.704-1.769
		c-1.281-4.937-2.196-7.068-4.148-9.751L585.931,64.551z"/>
	<path fill="#003461" d="M676.021,105.822V77.049c0-2.441-0.122-5.244-0.367-7.621c2.074,0.246,3.536,0.428,4.573,0.548
		c4.144,0.429,5.303,0.795,5.303,1.522c0,0.671-0.733,1.162-2.497,1.709c-0.063,4.208-0.063,7.621-0.063,9.693
		c0,10.362,0.122,20.18,0.367,27.917c0,0.917-0.305,1.344-1.038,1.648c-0.671,0.244-2.497,0.487-4.082,0.487
		c-1.771,0-2.076-0.184-2.196-1.401v-4.451h-34.688v3.475c0,0.794-0.122,1.159-0.547,1.463c-0.547,0.428-2.313,0.731-4.328,0.731
		c-2.013,0-2.438-0.304-2.438-1.769c0.245-8.415,0.366-15.42,0.366-24.2c0-9.935-0.062-13.716-0.428-17.495
		c7.864,0.977,8.229,0.977,8.965,1.281c0.484,0.243,0.729,0.486,0.729,0.852c0,0.671-0.55,1.039-2.318,1.584v32.8h13.292V68.819
		c0-3.474-0.184-7.56-0.428-10.12c9.388,0.914,10.36,1.099,10.36,2.072c0,0.732-0.667,1.158-2.682,1.707v43.344H676.021z"/>
	<path fill="#003461" d="M691.922,112.163c4.815-3.841,7.318-6.28,10.061-9.753c1.948-2.564,2.986-4.208,4.084-6.645
		c7.803,2.557,8.656,2.925,8.656,3.596c0,0.668-0.795,0.913-2.866,1.035c-7.435,6.947-10.671,8.964-19.568,12.313L691.922,112.163z
		 M702.469,93.322v1.526c-0.063,1.342-0.733,1.586-4.449,1.586c-2.135,0-2.438-0.125-2.438-1.22
		c0.304-9.753,0.304-11.398,0.304-18.776c0-8.84,0-9.447-0.304-12.74c1.828,0.242,3.232,0.368,4.145,0.488
		c4.268,0.428,5.179,0.67,5.179,1.402c0,0.611-0.482,0.914-2.436,1.524v24.928h35.111c1.951-2.13,2.563-2.742,4.391-4.751
		c2.865,2.131,3.719,2.864,6.4,5.119c0.244,0.245,0.304,0.428,0.304,0.554c0,0.241-0.241,0.36-0.609,0.36H724.05v6.523
		c0,4.024,0.06,6.586,0.181,12.562v0.241c0,1.222-0.975,1.523-4.388,1.523c-2.378,0-2.683-0.12-2.683-1.404
		c0.123-3.104,0.245-9.688,0.245-12.922v-6.523H702.469z M715.209,87.777c0,0.549-0.122,0.854-0.366,1.037
		c-0.367,0.365-1.888,0.607-3.964,0.607c-2.133,0-2.495-0.242-2.495-1.522c0.239-6.215,0.299-9.628,0.299-18.224
		c0-8.11,0-8.659-0.241-12.013c3.293,1.343,4.269,1.832,7.438,3.417h16.093c1.465-1.465,1.891-1.892,3.413-3.292
		c2.137,1.524,2.808,2.012,4.879,3.535c0.549,0.428,0.794,0.732,0.794,1.099c0,0.549-0.553,1.036-2.136,1.768
		c0.063,14.872,0.063,15.422,0.243,22.921c0,0.732-0.12,1.096-0.487,1.342c-0.545,0.485-2.07,0.729-4.144,0.729
		c-1.707,0-2.075-0.185-2.075-1.097v-2.134h-17.25V87.777z M732.459,62.357h-17.252v6.398h17.252V62.357z M715.209,76.438h17.25
		v-6.401h-17.25V76.438z M715.209,84.667h17.25v-6.948h-17.25V84.667z M727.34,96.31c6.769,1.833,11.034,3.357,14.082,5.001
		c2.743,1.524,3.658,2.863,3.658,5.238c0,2.992-1.344,5.306-3.047,5.306c-0.428,0-0.918-0.244-1.284-0.547
		c-0.362-0.425-0.362-0.425-1.765-2.44c-3.231-4.693-6.278-7.739-11.948-11.886L727.34,96.31z"/>
</g>
</svg>
