<?xml version="1.0" encoding="utf-8"?>
<!-- Generator: Adobe Illustrator 15.0.2, SVG Export Plug-In . SVG Version: 6.00 Build 0)  -->
<!DOCTYPE svg PUBLIC "-//W3C//DTD SVG 1.1//EN" "http://www.w3.org/Graphics/SVG/1.1/DTD/svg11.dtd">
<svg version="1.1" id="layer1" xmlns="http://www.w3.org/2000/svg" xmlns:xlink="http://www.w3.org/1999/xlink" x="0px" y="0px"
	 width="400px" height="100px" viewBox="0 0 400 100" enable-background="new 0 0 400 100" xml:space="preserve">
<polygon fill="#FFFFFF" points="7,9.098 9.25,5 19,5 388.75,4.563 393,8.188 393,12 393,90 392.417,93.166 389.584,96 10,96 
	7,92.25 "/>
<rect x="15.738" y="12.059" fill="#C3DD8D" width="284.231" height="75.984"/>
<g>
	<defs>
		<rect id="SVGID_1_" x="16.342" y="12.889" width="368.57" height="75.15"/>
	</defs>
	<clipPath id="SVGID_2_">
		<use xlink:href="#SVGID_1_"  overflow="visible"/>
	</clipPath>
	<rect x="320.056" y="78.518" clip-path="url(#SVGID_2_)" fill="#8AB928" width="59.446" height="9.473"/>
	<path clip-path="url(#SVGID_2_)" fill="#0E8A3B" d="M379.502,89.049h-59.446c-0.586,0-1.059-0.473-1.059-1.059v-9.473
		c0-0.586,0.473-1.059,1.059-1.059h59.446c0.585,0,1.059,0.473,1.059,1.059v9.473C380.561,88.576,380.087,89.049,379.502,89.049z
		 M321.114,86.932h57.328v-7.355h-57.328V86.932z"/>
	<path clip-path="url(#SVGID_2_)" fill="#DD5519" d="M371.534,78.59V59.682c0-3.875-3.143-7.01-7.01-7.01h-29.492
		c-3.87,0-7.006,3.135-7.006,7.01V78.59H371.534z"/>
	<path clip-path="url(#SVGID_2_)" fill="#0E8A3B" d="M371.534,79.648h-43.508c-0.585,0-1.059-0.475-1.059-1.059V59.682
		c0-4.449,3.619-8.068,8.064-8.068h29.492c4.449,0,8.068,3.619,8.068,8.068V78.59C372.593,79.174,372.12,79.648,371.534,79.648z
		 M329.085,77.529h41.391V59.682c0-3.281-2.67-5.951-5.951-5.951h-29.492c-3.277,0-5.947,2.67-5.947,5.951V77.529z"/>
	<rect x="335.783" y="75.502" clip-path="url(#SVGID_2_)" fill="#8AB928" width="27.998" height="7.326"/>
	<path clip-path="url(#SVGID_2_)" fill="#0E8A3B" d="M363.781,83.887h-27.998c-0.585,0-1.059-0.473-1.059-1.059v-7.326
		c0-0.584,0.474-1.059,1.059-1.059h27.998c0.586,0,1.059,0.475,1.059,1.059v7.326C364.84,83.414,364.367,83.887,363.781,83.887z
		 M336.842,81.77h25.881v-5.207h-25.881V81.77z"/>
	<path clip-path="url(#SVGID_2_)" fill="#0E8A3B" d="M328.575,48.227c-0.368,0-0.729-0.195-0.924-0.541l-8.046-14.327
		c-0.285-0.509-0.105-1.154,0.405-1.442c0.507-0.285,1.152-0.106,1.441,0.406l8.046,14.327c0.286,0.511,0.105,1.156-0.405,1.441
		C328.928,48.185,328.751,48.227,328.575,48.227z"/>
	<path clip-path="url(#SVGID_2_)" fill="#0E8A3B" d="M323.33,53.125c-0.105,0-0.211-0.014-0.315-0.049l-16.787-5.244
		c-0.56-0.173-0.871-0.766-0.694-1.325c0.173-0.562,0.773-0.862,1.325-0.696l16.787,5.246c0.559,0.174,0.87,0.766,0.694,1.326
		C324.201,52.836,323.78,53.125,323.33,53.125z"/>
	<path clip-path="url(#SVGID_2_)" fill="#0E8A3B" d="M306.543,64.311c-0.45,0-0.871-0.293-1.01-0.748
		c-0.177-0.555,0.139-1.148,0.698-1.32l14.688-4.547c0.541-0.184,1.149,0.139,1.322,0.697c0.176,0.557-0.14,1.15-0.698,1.322
		l-14.688,4.547C306.753,64.295,306.648,64.311,306.543,64.311z"/>
	<path clip-path="url(#SVGID_2_)" fill="#FFFFFF" d="M359.647-8.234h-23.484c0,0-2.088,2.207-1.528,3.607
		c0.563,1.396-3.229,5.058-3.507,7.577c-0.278,2.516-0.736,18.803-0.736,18.803v1.889c0,6.143,6.604,5.567,6.604,0.837
		c0-0.251,0.049-0.879,0.038-0.672c-0.222,8.5,6.89,8.038,7.156,1.851c0.007-0.221,0.078-0.751,0.082-0.582
		c0.116,9.297,9.859,6.999,9.503-0.597c-0.105-2.23,0,16.427,0,16.427v1.959c0,6.616,9.229,6.616,9.229,0v-26.21l0.301-0.301
		c7.002,13.431,15.72,7.352,12.739,1.386c-3.714-7.427-8.489-13.539-9.751-14.793C365.039,1.685,360.346-7.532,359.647-8.234"/>
	<path clip-path="url(#SVGID_2_)" fill="#0E8A3B" d="M358.39,48.887c-2.819,0-5.673-2.068-5.673-6.022v-1.959l0,0
		c0,0-0.034-5.743-0.045-10.476c-1.187,1.181-2.688,1.787-4.078,1.787c-1.606,0-3.401-0.81-4.46-2.865
		c-1.622,2.368-4.539,2.499-6.285,0.706c-0.425-0.438-0.886-1.075-1.243-1.993c-2.496,2.318-7.272,1.205-7.272-4.423v-1.889
		c0.019-0.696,0.462-16.389,0.743-18.919c0.162-1.485,1.187-3.063,2.178-4.587c0.556-0.852,1.394-2.142,1.378-2.555
		c-0.751-1.858,1.333-4.205,1.761-4.655c0.199-0.211,0.478-0.331,0.771-0.331h23.484c0.281,0,0.552,0.113,0.751,0.312
		c0.368,0.372,0.991,1.471,2.681,4.516c1.333,2.408,3.353,6.048,3.965,6.666c1.228,1.22,6.067,7.307,9.946,15.067
		c0.979,1.954,0.945,4.118-0.087,5.789c-0.953,1.541-2.575,2.426-4.453,2.426l0,0c-1.783,0-5.031-0.82-8.388-5.771v23.154
		C364.063,46.818,361.209,48.887,358.39,48.887z M353.761,23.234c0.563,0,1.047,0.629,1.073,1.193
		c0.022,0.525,0.004,1.027-0.049,1.504c-0.011,3.979,0.049,14.968,0.049,14.968v1.965c0,2.696,1.787,3.901,3.556,3.901
		s3.556-1.205,3.556-3.901v-26.21c0-0.282,0.112-0.55,0.312-0.749l0.301-0.301c0.236-0.238,0.582-0.338,0.908-0.298
		c0.334,0.052,0.623,0.259,0.777,0.558c3.529,6.769,6.916,7.499,8.207,7.499c1.127,0,2.092-0.518,2.651-1.423
		c0.642-1.04,0.642-2.435-0.004-3.729c-3.8-7.593-8.546-13.516-9.552-14.515c-0.77-0.773-2.212-3.328-4.321-7.138
		c-0.759-1.366-1.667-3.009-2.121-3.735h-22.46c-0.635,0.779-1.176,1.781-1.025,2.157c0.492,1.22-0.424,2.632-1.588,4.421
		c-0.814,1.256-1.742,2.679-1.852,3.664c-0.267,2.444-0.725,18.553-0.728,18.717v1.858c0,2.538,1.242,3.438,2.301,3.438
		c1.086,0,2.186-0.894,2.186-2.601c0-0.662,0-1.772,1.097-1.772c0.292,0,0.57,0.12,0.77,0.331c0.202,0.212,0.304,0.537,0.289,0.828
		c-0.075,2.881,0.766,4.191,1.272,4.713c1.352,1.38,3.623,0.352,3.766-2.966c0.016-0.439,0.057-1.629,1.138-1.629
		c0.575,0,1.052,0.493,1.063,1.067c0.038,3.118,1.288,5.049,3.263,5.049c1.731,0,3.755-1.547,4.085-4.412
		C352.683,23.935,352.687,23.234,353.761,23.234z"/>
</g>
<path fill="#0E8A3B" d="M38.231,43.995c1.179-0.045,1.179-0.045,5.256-0.77c6.428-1.135,10.37-1.54,14.215-1.54
	c3.672,0,6.48,0.586,8.56,1.854c2.809,1.679,4.393,4.713,4.393,8.29c0,5.162-3.124,9.871-8.605,12.998
	c-3.709,2.129-6.878,3.082-14.26,4.258c-0.458-2.402-0.954-3.533-2.358-5.658c5.256-0.232,10.145-1.498,13.629-3.447
	c3.582-1.992,5.527-4.846,5.527-7.971c0-3.396-2.403-5.116-7.111-5.116c-5.114,0-14.177,1.584-17.932,3.124L38.231,43.995z
	 M45.297,29.547c5.023,1.675,11.729,2.629,18.885,2.629h1.269l-0.773,5.567c-8.245-0.36-14.492-1.175-21.146-2.854L45.297,29.547z"
	/>
<path fill="#0E8A3B" d="M87.972,30.951c0.045,1.72,0.541,4.982,1.089,7.292c3.079-1.27,5.752-1.81,8.741-1.81h1.224
	c0.946-3.853,1.262-5.527,1.314-7.021l5.699,1.13c-0.271,0.545-0.36,0.864-0.451,1.27c-0.631,2.444-1.224,4.663-1.404,5.298
	c2.673,0.679,4.303,1.407,6.067,2.718c3.627,2.674,5.527,6.521,5.527,11.233c0,6.656-3.845,12.045-10.595,14.898
	c-2.178,0.949-3.897,1.449-7.381,2.174c-0.684-2.264-1.089-3.033-2.809-5.299c3.124-0.273,4.888-0.678,7.381-1.768
	c3.079-1.311,5.114-2.898,6.338-4.844c0.999-1.678,1.539-3.578,1.539-5.571c0-2.988-1.036-5.249-3.304-7.021
	c-1.224-0.946-2.215-1.404-4.078-1.945c-1.81,6.203-4.934,12.59-8.237,16.893c-1.637,2.082-3.582,3.938-5.392,4.98
	c-1.404,0.861-2.673,1.229-4.212,1.229c-4.664,0-7.787-4.08-7.787-10.193c0-5.571,2.53-10.374,7.246-13.906
	c-0.232-0.68-1.043-4.618-1.539-7.156c-0.098-0.586-0.188-0.86-0.458-1.54L87.972,30.951z M82.22,54.455
	c0,2.943,1.269,4.982,3.079,4.982c1.269,0,2.718-0.996,4.258-2.943c-2.08-4.574-2.809-6.657-3.709-10.416
	C83.309,48.748,82.22,51.285,82.22,54.455 M92.995,52.055c0.143-0.314,0.143-0.359,0.278-0.588c1.81-3.079,3.034-5.933,4.528-10.461
	c-3.124,0-5.392,0.496-7.794,1.81c0.728,3.128,1.314,4.982,2.718,8.562c0.135,0.363,0.18,0.453,0.225,0.678H92.995z"/>
<path fill="#0E8A3B" d="M124.714,45.898c0.811,0.09,1.224,0.135,1.899,0.135c2.628,0,9.514-0.318,12.818-0.634
	c2.628-0.229,2.809-0.229,3.619-0.59l2.628,3.259c-0.811,0.499-0.811,0.499-3.484,2.992c-1.629,1.494-3.897,3.484-5.797,5.072
	c-0.315,0.271-0.36,0.316-0.593,0.496l0.045,0.09c1.089-0.676,1.682-0.859,2.628-0.859c2.358,0,3.401,1.271,3.807,4.531
	c0.36,2.535,0.405,2.805,1.043,3.26c0.496,0.359,1.171,0.498,2.351,0.498c2.223,0,5.347-0.635,7.021-1.449l0.496,5.027
	c-0.496,0-0.721,0.045-1.494,0.182c-3.439,0.588-5.159,0.77-6.969,0.77c-2.448,0-4.212-0.496-5.346-1.494
	c-0.729-0.68-1.089-1.496-1.269-2.945c-0.09-0.453-0.09-0.453-0.226-2.398c-0.09-1.768-0.548-2.309-1.854-2.309
	c-1.772,0-3.402,1.039-6.706,4.254c-2.403,2.309-3.304,3.352-4.528,4.893l-3.807-4.168c1.998-1.404,4.393-3.533,8.831-7.836
	c3.626-3.439,5.481-5.207,7.606-7.107l-0.045-0.049c-0.946,0.185-2.711,0.364-7.427,0.68c-3.168,0.274-3.713,0.319-4.843,0.545
	L124.714,45.898z M129.377,36.385c3.709,1.089,9.371,1.858,13.674,1.858h1.089l-0.721,4.482c-6.57-0.315-11.459-0.995-15.446-2.174
	L129.377,36.385z"/>
<path fill="#0E8A3B" d="M159.053,49.428c1.675-2.035,2.493-2.76,4.483-4.028c2.764-1.724,4.798-2.354,7.427-2.354
	c2.087,0,3.897,0.405,5.842,1.355c1.179,0.59,1.179,0.59,4.123,2.493c3.439,2.219,5.842,3.169,8.02,3.169
	c0.946,0,2.26-0.36,3.349-0.86c1.945-0.995,3.124-1.993,4.708-4.122l3.627,3.627c-1.862,2.354-2.809,3.303-4.303,4.389
	c-2.313,1.723-4.896,2.582-7.839,2.582c-1.359,0-2.764-0.225-3.98-0.633c-1.772-0.59-2.673-1.041-6.21-3.35
	c-3.98-2.538-5.384-3.082-7.787-3.082c-2.943,0-5.031,1.089-7.884,4.166L159.053,49.428z"/>
<path fill="#0E8A3B" d="M222.106,29.593c-0.27,0.859-0.27,0.859-0.721,3.033c-0.225,1.089-0.458,1.994-0.953,3.987
	c3.123-0.319,5.481-0.725,7.246-1.269l0.135,5.207c-0.495,0.045-0.585,0.045-1.449,0.226c-1.629,0.273-4.393,0.589-7.201,0.818
	c-1.313,4.528-2.943,8.831-4.979,13.133c-1.044,2.219-1.449,3.033-3.169,6.203c-0.593,1.088-0.593,1.088-0.863,1.629l-5.211-2.898
	c1.592-2.08,2.854-4.119,4.393-7.25c1.772-3.615,2.538-5.474,4.258-10.682c-2.035,0.045-2.306,0.045-2.854,0.045
	c-0.586,0-0.856,0-1.81-0.045l-2.396-0.049v-5.158c1.629,0.315,3.349,0.405,6.112,0.405c0.541,0,1.314,0,2.306-0.045
	c0.773-3.218,1.269-5.933,1.358-7.881L222.106,29.593z M242.622,66.277c-1.63-1.947-4.258-4.076-6.924-5.617
	c0.045,0.402,0.09,0.723,0.09,0.906c0,1.674-0.773,3.623-1.952,4.801c-1.584,1.631-4.303,2.535-7.517,2.535
	c-5.978,0-9.874-2.988-9.874-7.607c0-4.576,4.032-7.791,9.784-7.791c1.359,0,2.313,0.092,4.213,0.41
	c-0.136-2.084-0.226-3.852-0.226-5.211c0-1.765,0.09-3.079,0.36-4.573l5.257,0.271c-0.459,1.678-0.549,2.718-0.549,4.577
	c0,1.81,0.09,3.622,0.413,6.202c3.259,1.449,3.71,1.678,7.156,4.168c0.676,0.453,0.856,0.633,1.585,1.223
	c0.36,0.361,0.36,0.361,0.676,0.635L242.622,66.277z M226.545,57.988c-2.943,0-4.844,1.223-4.844,3.123
	c0,1.859,1.63,2.947,4.438,2.947c3.078,0,4.572-1.27,4.572-3.807c0-0.451-0.09-1.539-0.09-1.539
	C229.038,58.168,227.949,57.988,226.545,57.988 M242.854,45.444c-3.942-2.629-7.975-4.573-13.043-6.342l2.707-4.393
	c5.35,2.038,8.744,3.623,12.776,6.067L242.854,45.444z"/>
<path fill="#0E8A3B" d="M265.104,57.443c0.045-0.949,0.09-1.4,0.09-1.945c0-0.498,0-0.498-0.136-3.217l-0.638-15.397
	c-0.09-1.994-0.226-4.258-0.405-5.526h7.426c-0.135,1.224-0.315,3.578-0.405,5.526l-0.638,15.397
	c-0.091,2.627-0.091,2.627-0.091,3.262c0,0.545,0,0.996,0.091,1.9H265.104z M264.466,61.16h6.57v6.199h-6.57V61.16z"/>
<path fill="#0E8A3B" d="M387.731,97.17H12.269c-3.8,0-6.89-3.09-6.89-6.889V9.72c0-3.8,3.09-6.89,6.89-6.89h375.463
	c3.8,0,6.89,3.09,6.89,6.89v80.562C394.621,94.08,391.531,97.17,387.731,97.17z M12.269,5.713c-2.209,0-4.006,1.797-4.006,4.007
	v80.562c0,2.207,1.796,4.006,4.006,4.006h375.463c2.208,0,4.006-1.799,4.006-4.006V9.72c0-2.21-1.798-4.007-4.006-4.007H12.269z"/>
<path fill="#0E8A3B" d="M384.638,89.574H15.362c-0.876,0-1.586-0.709-1.586-1.584V12.008c0-0.877,0.71-1.586,1.586-1.586h369.275
	c0.875,0,1.585,0.709,1.585,1.586V87.99C386.223,88.865,385.513,89.574,384.638,89.574z M16.949,86.406h366.105V13.594H16.949
	V86.406z"/>
</svg>
