<?xml version="1.0" encoding="utf-8"?>
<!-- Generator: Adobe Illustrator 15.0.2, SVG Export Plug-In . SVG Version: 6.00 Build 0)  -->
<!DOCTYPE svg PUBLIC "-//W3C//DTD SVG 1.1//EN" "http://www.w3.org/Graphics/SVG/1.1/DTD/svg11.dtd">
<svg version="1.1" id="layer1" xmlns="http://www.w3.org/2000/svg" xmlns:xlink="http://www.w3.org/1999/xlink" x="0px" y="0px"
	 width="300px" height="200px" viewBox="0 0 300 200" enable-background="new 0 0 300 200" xml:space="preserve">
<path fill="#FFFFFF" d="M288.225,96.566c-3.672-4.987-9.549-8.699-17.43-11.021c-5.457-1.646-10.982-2.48-16.419-2.48
	c-0.193,0-0.409,0.002-0.647,0.006c0-0.008,0.001-0.017,0.001-0.025c0-3.72-1.812-6.952-5.102-9.108
	c-3.192-2.15-7.025-3.241-11.394-3.241c-0.563,0-1.112,0.03-1.647,0.09c0.165-0.795,0.249-1.607,0.249-2.433
	c0-2.646-0.883-5.132-2.58-7.228c-1.637-1.991-4.106-3.718-7.781-5.441c-5.887-2.747-11.542-4.14-16.809-4.14
	c-2.89,0-5.639,0.806-8.173,2.396c-2.14,1.343-3.332,3.784-3.075,6.297c0.257,2.513,1.918,4.662,4.286,5.543
	c2.733,1.018,3.904,1.889,4.345,2.303c0.208,0.198,0.313,0.648,0.313,1.338c0,2.036-0.487,5.819-2.614,12.627
	c-2.723,0.384-5.154,0.578-7.262,0.578c-2.922,0-4.525-0.425-5.316-0.764c-1.288-0.563-3.452-1.88-6.44-4.952
	c-2.211-2.273-5.722-2.665-8.379-0.934l-1.256,0.818c-2.767,1.803-3.787,5.365-2.396,8.359c3.02,6.488,6.817,11.306,11.289,14.318
	c0.029,0.021,0.06,0.04,0.09,0.06c3.107,2.021,6.745,3.341,10.86,3.951c-3.263,6.402-6.865,12.326-10.765,17.691
	c-2.059,2.755-3.663,4.749-4.767,5.923c-1.785,1.899-2.822,3.226-3.468,4.436c-0.011,0.021-0.021,0.04-0.032,0.062
	c-1.069,2.054-1.566,4.563-1.566,7.896c0,4.377,0.99,8.334,2.952,11.779c3.139,5.468,7.707,6.284,10.151,6.284
	c2.994,0,5.792-1.115,8.099-3.227c1.805-1.622,3.499-4.131,5.325-7.886c2.769-5.542,9.116-19.726,19.398-43.338l0.651-1.48
	c11.554-2.555,19.661-4.996,24.657-7.415c0.78,1.536,2.146,2.766,3.902,3.324c1.131,0.359,2.169,0.723,3.12,1.087
	c-0.832,0.341-1.578,0.683-2.242,1.026c-6.999,3.665-11.503,9.512-13.024,16.895c-0.728,3.49-1.082,7.754-1.082,13.031
	c0,0.319,0.004,0.728,0.009,1.224c-4.716,0.107-9.249,0.899-13.484,2.356c-7.299,2.507-12.577,6.589-15.708,12.168
	c-1.841,3.33-2.774,6.861-2.774,10.496c0,3.38,0.822,6.584,2.445,9.527c1.651,3.044,4.009,5.59,6.991,7.558
	c5.066,3.357,11.412,5.061,18.861,5.061c4.44,0,8.574-0.581,12.284-1.729c4.252-1.261,7.768-3.199,10.452-5.768
	c2.12-2.029,3.731-4.365,4.826-6.985c1.383,1.205,2.688,2.493,3.907,3.857c0.018,0.02,0.035,0.039,0.053,0.058
	c1.823,1.989,3.188,3.234,4.424,4.035c0.063,0.042,0.128,0.082,0.193,0.121c1.672,1.004,3.498,1.513,5.426,1.513
	c3.791,0,7.167-2.078,9.268-5.712c1.379-2.396,2.078-5.284,2.078-8.585c0-6.699-3.032-12.493-8.811-16.786
	c-4.287-3.131-9.849-5.771-16.924-8.026c-2.061-10.307-2.521-15.196-2.521-17.507c0-0.676,0.058-1.124,0.112-1.4
	c0.558-0.174,1.789-0.439,4.113-0.439c2.415,0,4.496,0.249,6.193,0.743c1.139,0.329,2.394,0.986,3.732,1.954
	c0.015,0.012,0.03,0.022,0.045,0.033c2.766,1.964,5.358,2.92,7.925,2.92c3.938,0,7.342-1.737,9.592-4.891
	c1.746-2.405,2.632-5.358,2.632-8.776C291.589,102.979,290.459,99.609,288.225,96.566z"/>
<path fill="#FFFFFF" d="M194.636,153.502c-0.039-0.031-0.078-0.061-0.118-0.092c-2.406-1.818-4.928-2.74-7.493-2.74
	c-1.261,0-2.593,0.302-4.436,1.004c-0.719,0.27-1.58,0.436-2.57,0.494c-1.011-3.177-1.58-4.413-2.005-5.193
	c-0.028-0.052-0.058-0.104-0.088-0.154c-0.909-1.563-2.015-2.888-3.286-3.954c0.913-0.778,1.498-1.256,1.87-1.546
	c0.917-0.669,1.33-0.859,1.375-0.88c0.033-0.015,0.064-0.029,0.098-0.044c1.669-0.775,2.652-1.331,3.422-1.938
	c2.285-1.755,3.542-4.207,3.542-6.919c0-3.152-1.649-5.819-3.511-7.913c1.935-1.802,2.855-4.302,2.855-6.799
	c0-2.202-0.734-6.404-5.652-9.811c-0.033-0.023-0.067-0.046-0.102-0.068c-2.255-1.501-4.585-2.263-6.926-2.263
	c-0.599,0-1.347,0.049-2.388,0.152c-0.811,0.077-1.271,0.094-1.515,0.094c-0.47,0-1.006-0.039-1.596-0.112
	c-0.023-0.003-0.048-0.007-0.072-0.009c-2.414-0.276-3.787-0.727-4.471-1.034c-0.315-0.147-1.025-0.529-2.222-1.451
	c-2.512-1.938-6.045-1.825-8.43,0.268l-0.656,0.577c-2.25,1.975-2.898,5.21-1.584,7.9c0.696,1.425,1.535,2.742,2.515,3.945
	c-1.635,0.796-2.806,2.197-3.361,3.82c-0.189-0.039-0.38-0.072-0.575-0.095c-2.503-0.288-4.955,0.869-6.325,2.986
	c-1.417,2.186-2.134,4.437-2.134,6.688c0,2.585,0.65,5.242,1.932,7.899c0.014,0.029,0.029,0.059,0.043,0.089
	c1.984,3.96,4.446,5.838,6.721,6.649c-3.521,3.399-6.411,5.921-8.646,7.54c-1.333,0.975-2.288,1.914-2.986,2.943
	c-1.161,1.651-1.749,3.651-1.749,5.949c0,2.936,0.667,5.619,1.98,7.98c1.802,3.271,4.814,5.146,8.271,5.146
	c2.104,0,4.148-0.72,5.91-2.082c0.057-0.044,0.114-0.091,0.17-0.137c0.956-0.79,1.917-1.899,3.215-3.706
	c0.012-0.017,0.022-0.032,0.035-0.048c3.784-5.37,6.092-7.862,7.379-9.022c0.076-0.068,0.149-0.135,0.222-0.198
	c0.159,1.031,0.276,1.607,0.388,2.04c0.827,3.392,2.38,6.182,4.617,8.29c3.565,3.413,9.121,5.072,16.98,5.072
	c4.063,0,7.233-0.362,9.692-1.107c0.025-0.008,0.05-0.016,0.074-0.023c4.23-1.335,6.859-4.721,6.859-8.835
	C199.907,159.417,198.133,156.271,194.636,153.502z"/>
<path fill="#FFFFFF" d="M182.042,64.271c-2.56-5.253-6.251-9.709-10.963-13.235c-4.676-3.513-9.951-6.002-15.748-7.44
	c0.656-2.911,0.973-5.262,0.973-7.185c0-3.473-1.299-9.847-9.958-13.504c-2.856-1.224-5.678-1.844-8.387-1.844
	c-3.597,0-7.662,1.317-12.427,4.025c-2.646,1.503-3.93,4.614-3.115,7.546l0.273,0.981c0.866,3.115,3.854,5.153,7.066,4.825
	c0.42-0.043,0.778-0.076,1.081-0.101c-0.114,1.402-0.322,3.039-0.623,4.9c-2.912,0.516-5.628,1.153-8.115,1.904
	c-0.02,0.006-0.04,0.012-0.06,0.018c-1.46,0.457-2.93,0.978-4.402,1.563c-0.998-2.48-2.167-4.622-3.522-6.461
	c-0.012-0.016-0.023-0.031-0.035-0.047c-3.139-4.184-7.513-7.641-13.001-10.276c-2.474-1.188-5.424-0.731-7.422,1.151l-0.925,0.872
	c-1.302,1.226-2.054,2.924-2.085,4.712c-0.033,1.787,0.658,3.511,1.914,4.783c2.343,2.372,3.951,5.046,4.913,8.177
	c0.005,0.017,0.011,0.035,0.016,0.052c0.585,1.848,1.194,4.333,1.82,7.419c-7.73,6.283-12.964,13.218-15.578,20.649
	c-1.266,3.567-1.909,6.934-1.909,10.008c0,4.715,1.853,9.118,5.359,12.733c0.023,0.024,0.047,0.048,0.071,0.072
	c0.967,0.968,1.235,1.437,1.237,1.437l0,0c0.014,0.03,0.226,0.522,0.428,1.907c0.003,0.018,0.005,0.036,0.008,0.054
	c1.716,11.13,9.873,11.996,12.332,11.996c4.126,0,8.491-1.659,13.356-5.08c1.848-1.306,3.549-2.637,5.095-3.987
	c2.604,2.097,5.186,3.403,7.782,3.94c-0.127,0.041-0.255,0.081-0.383,0.123c-3.296,1.06-5.224,4.475-4.427,7.845l0.271,1.145
	c0.713,3.016,3.405,5.109,6.453,5.109c0.194,0,0.39-0.008,0.587-0.025c5.611-0.495,10.445-1.154,14.36-1.96
	c12.995-2.655,23.195-7.697,30.304-14.974c7.406-7.536,11.162-16.722,11.162-27.306C185.818,74.927,184.544,69.361,182.042,64.271z
	 M154.699,93.22c-3.068,4.785-6.923,8.449-11.791,11.205c-1.101,0.624-2.311,1.246-3.625,1.864c0.981-1.554,1.5-3.376,1.5-5.35
	c0-2.239-0.634-4.421-1.886-6.487c-0.021-0.036-0.042-0.071-0.065-0.106c-0.65-1.029-1.724-2.371-3.5-4.369
	c-0.151-0.168-0.298-0.335-0.442-0.5c5.819-8.489,10.865-18.103,15.057-28.688c1.433,0.589,2.684,1.362,3.775,2.33
	c3.688,3.247,5.481,7.941,5.481,14.351C159.205,83.284,157.725,88.446,154.699,93.22z"/>
<path fill="#FFFFFF" d="M97.43,84.171c-2.829-5.003-6.795-9.03-11.747-11.944C80.57,69.17,74.871,67.62,68.744,67.62
	c-1.074,0-2.186,0.054-3.325,0.155c3.196-0.458,6.106-0.698,8.681-0.698h4.934c0.119,0,0.237-0.003,0.355-0.009
	c2.573-0.138,4.536-0.526,6.18-1.221c0.019-0.008,0.037-0.016,0.056-0.024c4.598-1.996,7.236-5.961,7.236-10.88
	c0-1.133-0.186-2.296-0.57-3.559c-1.015-3.323-3.152-6.466-6.353-9.342c-0.035-0.032-0.07-0.063-0.106-0.094
	c-4.282-3.687-8.656-5.555-13.001-5.555c-0.714,0-1.843,0.058-4.802,0.489c-1.755,0.238-3.413,0.358-4.925,0.358
	c-6.194,0-12.046-1.243-17.402-3.7c-1.626-0.743-3.314-1.833-5.018-3.24c-2.233-1.845-5.404-2.028-7.836-0.453l-1.197,0.776
	c-2.951,1.913-3.897,5.796-2.157,8.852c2.636,4.631,5.734,8.573,9.211,11.719c1.39,1.257,2.893,2.423,4.505,3.498
	c-4.028,2.036-7.601,3.855-10.633,5.417c-3.108,1.6-4.442,5.337-3.05,8.543l0.704,1.622c1.074,2.474,3.5,3.995,6.086,3.995
	c0.588,0,1.185-0.079,1.775-0.242c5.69-1.579,11.85-3.106,18.333-4.551c-3.776,1.144-8.488,3.093-14.331,5.928
	c-4.557,2.209-8.129,3.88-10.576,4.947c-2.526,1.082-3.457,1.154-3.447,1.156c-0.276,0-0.644-0.175-1.071-0.505
	c-0.958-0.745-1.795-2.293-2.419-4.479c-0.695-2.431-2.71-4.255-5.198-4.707c-2.488-0.45-5.015,0.552-6.519,2.584
	c-1.07,1.447-1.807,2.647-2.304,3.756c-0.923,1.915-1.391,4.136-1.391,6.603c0,5.2,1.933,10.443,5.744,15.583
	c5.063,6.833,10.889,10.296,17.314,10.296c3.211,0,6.231-1.002,8.731-2.896c0.049-0.038,0.097-0.075,0.145-0.113
	c1.065-0.855,2.317-2.144,3.939-4.055c0.015-0.018,0.029-0.034,0.043-0.052c4.084-4.912,7.554-8.489,10.295-10.616
	c5.922-4.563,9.368-5.245,10.894-5.245c1.352,0,2.348,0.347,3.413,2.082c1.938,3.207,2.92,8.171,2.92,14.755
	c0,5.375-0.589,10.803-1.756,16.161c-2.475,11.563-7.405,21.64-14.64,29.931c-3.667,4.178-8.902,8.628-15.561,13.228
	c-1.477,1.02-2.477,2.594-2.773,4.364c-0.296,1.77,0.137,3.585,1.201,5.03l0.986,1.339c1.276,1.733,3.277,2.702,5.346,2.702
	c0.73,0,1.47-0.121,2.188-0.372c7.198-2.516,13.341-5.19,18.221-7.928c11.236-6.207,20.184-14.541,26.581-24.753
	c7.088-11.226,10.683-23.492,10.683-36.461C103.083,98.67,101.176,90.732,97.43,84.171z"/>
<g>
	<path fill="#325918" d="M18.2,78.345c1.034,3.619,2.61,6.249,4.725,7.894c1.644,1.269,3.358,1.903,5.146,1.903
		c1.409,0,3.429-0.564,6.06-1.691c2.585-1.127,6.203-2.819,10.858-5.076c6.39-3.101,11.371-5.097,14.943-5.99
		c3.196-0.751,6.133-1.129,8.813-1.129c4.933,0,9.444,1.223,13.532,3.667c3.993,2.35,7.119,5.522,9.377,9.516
		c3.194,5.594,4.793,12.36,4.793,20.301c0,11.749-3.219,22.722-9.658,32.919c-5.829,9.304-13.887,16.802-24.178,22.486
		c-4.606,2.585-10.34,5.074-17.202,7.472l-0.985-1.339c7.143-4.935,12.734-9.705,16.776-14.309
		c8.037-9.212,13.416-20.185,16.142-32.921c1.269-5.825,1.903-11.677,1.903-17.55c0-7.849-1.292-13.911-3.876-18.187
		c-2.162-3.524-5.192-5.286-9.092-5.286c-4.23,0-9.211,2.206-14.945,6.625c-3.149,2.445-6.933,6.322-11.347,11.631
		c-1.317,1.552-2.329,2.607-3.033,3.172c-1.364,1.034-2.938,1.55-4.723,1.55c-4.23,0-8.223-2.537-11.983-7.611
		c-2.96-3.993-4.439-7.87-4.439-11.632c0-1.504,0.255-2.773,0.773-3.805C16.861,80.296,17.401,79.427,18.2,78.345z"/>
	<path fill="#325918" d="M35.26,36.192l1.197-0.776c2.163,1.787,4.325,3.172,6.486,4.16c6.25,2.866,12.971,4.3,20.16,4.3
		c1.834,0,3.784-0.142,5.85-0.424c1.927-0.281,3.219-0.424,3.877-0.424c2.724,0,5.615,1.317,8.671,3.949
		c2.301,2.068,3.782,4.183,4.441,6.345c0.186,0.611,0.281,1.15,0.281,1.62c0,2.256-1.083,3.855-3.242,4.792
		c-0.895,0.379-2.21,0.613-3.949,0.706c-0.281,0-1.927,0-4.934,0c-5.169,0-11.303,0.802-18.398,2.396
		c-6.814,1.506-13.275,3.101-19.384,4.795l-0.705-1.622c3.103-1.597,7.024-3.596,11.772-5.992c5.589-2.912,9.234-4.794,10.924-5.64
		c-6.157-1.832-11.206-4.535-15.154-8.105C40.194,43.592,37.561,40.233,35.26,36.192z"/>
</g>
<path fill="#325918" d="M176.077,67.178c-2.104-4.319-5.101-7.929-8.983-10.836c-5.701-4.282-12.399-6.752-20.094-7.405
	c1.779-5.773,2.667-9.948,2.667-12.526c0-3.266-1.979-5.734-5.934-7.405c-2.035-0.871-3.958-1.307-5.773-1.307
	c-2.396,0-5.445,1.054-9.148,3.158l0.272,0.982c1.417-0.145,2.487-0.219,3.214-0.219c1.415,0,2.576,0.219,3.485,0.655
	c1.198,0.581,1.797,1.832,1.797,3.757c0,3.085-0.563,7.442-1.688,13.069c-4.431,0.544-8.386,1.342-11.873,2.395
	c-3.484,1.089-6.988,2.579-10.509,4.466c-1.125-5.083-2.704-9.003-4.736-11.763c-2.506-3.34-6.028-6.098-10.565-8.277l-0.925,0.872
	c3.086,3.124,5.263,6.752,6.535,10.892c0.907,2.867,1.832,6.934,2.776,12.197c-8.531,6.172-14.067,12.871-16.607,20.094
	c-1.019,2.867-1.526,5.463-1.526,7.787c0,3.014,1.163,5.718,3.487,8.114c1.16,1.161,1.977,2.196,2.449,3.103
	c0.471,0.909,0.835,2.233,1.089,3.976c0.655,4.248,2.578,6.37,5.773,6.37c2.686,0,5.862-1.286,9.528-3.863
	c3.704-2.616,6.662-5.266,8.876-7.951c3.922,4.646,7.442,6.969,10.565,6.969c0.979,0,1.832-0.272,2.559-0.815
	c0.907-0.655,1.361-1.562,1.361-2.725c0-1.014-0.31-2.032-0.926-3.049c-0.436-0.69-1.38-1.851-2.832-3.485
	c-1.562-1.743-2.813-3.34-3.757-4.792c7.769-10.381,14.158-22.599,19.168-36.647c5.009,0.618,9.111,2.34,12.306,5.172
	c5.154,4.538,7.731,10.982,7.731,19.331c0,7.044-1.851,13.486-5.555,19.332c-3.631,5.664-8.329,10.128-14.103,13.395
	c-4.356,2.472-10.039,4.828-17.042,7.079l0.271,1.146c5.373-0.474,9.91-1.089,13.614-1.852c11.727-2.396,20.693-6.771,26.9-13.125
	c6.172-6.279,9.258-13.831,9.258-22.652C179.182,75.927,178.146,71.389,176.077,67.178z M107.848,96.693
	c-1.96,1.198-3.506,1.797-4.629,1.797c-1.562,0-2.904-1.217-4.03-3.648c-0.909-1.888-1.361-3.977-1.361-6.263
	c0-7.624,3.447-15.01,10.346-22.164c1.415,9.041,3.704,17.099,6.862,24.178C112.53,93.317,110.134,95.35,107.848,96.693z
	 M129.573,68.539c-2.249,5.193-4.682,9.822-7.295,13.887c-1.851-3.776-3.305-7.442-4.357-10.999
	c-1.633-5.626-2.687-9.167-3.158-10.619c5.59-4.03,12.342-6.608,20.257-7.733C133.785,57.794,131.969,62.95,129.573,68.539z"/>
<g>
	<path fill="#325918" d="M146.502,125.334c0.713,1.976,1.413,3.315,2.097,4.028c0.683,0.712,1.52,1.07,2.507,1.07
		c0.984,0,3.067-0.414,6.246-1.236c0.903-0.245,3.521-1.04,7.849-2.381c1.424-0.44,2.384-0.783,2.878-1.03
		c0.329-0.163,0.781-0.451,1.354-0.862c0.603-0.411,1.124-0.613,1.562-0.613c1.042,0,2.248,0.628,3.617,1.891
		c2.466,2.188,3.698,3.97,3.698,5.339c0,0.632-0.327,1.192-0.986,1.685c-0.301,0.248-1.017,0.634-2.137,1.153
		c-0.738,0.328-1.631,0.878-2.671,1.642c-1.563,1.207-5.122,4.303-10.686,9.29l-3.04,2.71l0.039,0.206
		c1.618-0.74,2.851-1.22,3.7-1.438c1.042-0.302,2.067-0.452,3.082-0.452c2.902,0,5.096,1.273,6.577,3.82
		c0.436,0.798,1.079,2.591,1.929,5.386c0.468,1.534,1.37,2.52,2.714,2.958c0.657,0.219,1.438,0.33,2.343,0.33
		c2.163,0,4.08-0.316,5.752-0.946c1.014-0.384,1.711-0.576,2.098-0.576c1.095,0,2.259,0.467,3.492,1.399
		c1.835,1.451,2.754,2.836,2.754,4.149c0,1.206-0.741,2.041-2.22,2.507c-1.808,0.548-4.396,0.822-7.77,0.822
		c-6.024,0-10.163-1.082-12.41-3.247c-1.315-1.233-2.23-2.931-2.751-5.096c-0.139-0.521-0.357-1.943-0.659-4.273
		c-0.192-1.423-0.521-2.521-0.985-3.289c-0.493-0.821-1.317-1.23-2.466-1.23c-2.247,0-4.711,1.217-7.396,3.656
		c-2.221,2.001-5.001,5.37-8.343,10.11c-0.905,1.26-1.591,2.081-2.056,2.465c-0.604,0.467-1.221,0.695-1.851,0.695
		c-1.012,0-1.834-0.571-2.464-1.723c-0.767-1.37-1.151-2.959-1.151-4.767c0-0.932,0.19-1.657,0.575-2.18
		c0.248-0.384,0.728-0.835,1.439-1.354c4.768-3.451,11.97-10.371,21.617-20.755c3.096-3.342,4.643-5.247,4.643-5.713
		c0-0.3-0.192-0.451-0.575-0.451s-1.205,0.26-2.465,0.781c-4.629,1.861-8.562,3.795-11.795,5.796
		c-1.48,0.902-2.644,1.355-3.492,1.355c-1.482,0-2.809-1.181-3.989-3.534c-0.847-1.756-1.272-3.425-1.272-5.016
		C145.434,127.457,145.792,126.431,146.502,125.334z"/>
	<path fill="#325918" d="M154.641,108.156l0.656-0.576c1.316,1.016,2.481,1.754,3.494,2.222c1.696,0.768,3.861,1.3,6.495,1.602
		c0.873,0.111,1.684,0.164,2.423,0.164c0.574,0,1.287-0.042,2.138-0.122c0.823-0.082,1.409-0.124,1.765-0.124
		c1.014,0,2.098,0.384,3.249,1.151c1.861,1.288,2.795,2.741,2.795,4.354c0,1.863-1.262,2.795-3.782,2.795
		c-0.222,0-0.932-0.04-2.136-0.124c-0.55-0.054-1.046-0.082-1.48-0.082c-2.164,0-4.933,0.316-8.304,0.947
		c-1.616,0.301-4.107,0.82-7.478,1.562l-0.37-0.947c0.958-0.382,2.697-1.134,5.22-2.259c2.793-1.207,4.658-2.041,5.589-2.508
		C159.926,114.649,156.501,111.964,154.641,108.156z"/>
</g>
<g>
	<path fill="#325918" d="M178.718,82.355l1.255-0.818c3.014,3.098,5.859,5.234,8.539,6.405c2.049,0.88,4.709,1.32,7.975,1.32
		c3.474,0,7.575-0.44,12.306-1.32c2.803-8.12,4.207-14.293,4.207-18.521c0-2.597-0.794-4.646-2.386-6.154
		c-1.467-1.382-3.664-2.615-6.594-3.706c1.465-0.919,3.015-1.381,4.646-1.381c4.312,0,8.979,1.173,14.002,3.518
		c2.679,1.256,4.499,2.471,5.461,3.642c0.714,0.879,1.07,1.883,1.07,3.013c0,0.88-0.213,1.718-0.63,2.512
		c-0.209,0.419-0.752,1.194-1.63,2.324c-1.593,2.468-3.811,6.509-6.657,12.117c2.764-0.963,4.875-1.756,6.342-2.386
		c1.924-0.837,3.745-1.925,5.463-3.264c1.046-0.879,1.799-1.443,2.26-1.696c0.796-0.417,1.76-0.627,2.888-0.627
		c3.056,0,5.631,0.712,7.724,2.134c1.423,0.921,2.135,2.115,2.135,3.579c0,1.925-1.191,3.518-3.579,4.772
		c-4.73,2.512-13.835,5.19-27.311,8.037l-2.013,4.583c-10.171,23.356-16.596,37.716-19.275,43.074
		c-1.423,2.93-2.699,4.896-3.829,5.901c-1.089,1.005-2.302,1.508-3.642,1.508c-1.802,0-3.266-0.983-4.396-2.952
		c-1.383-2.428-2.072-5.253-2.072-8.477c0-2.177,0.273-3.787,0.817-4.834c0.335-0.628,1.149-1.632,2.448-3.015
		c1.297-1.382,3.053-3.559,5.274-6.531c6.026-8.287,11.302-17.683,15.821-28.19c-1.925,0.211-3.557,0.314-4.897,0.314
		c-5.146,0-9.396-1.088-12.745-3.266C184.22,91.627,181.229,87.754,178.718,82.355z"/>
	<path fill="#325918" d="M282.882,100.501c-2.805-3.809-7.472-6.678-14.003-8.603c-4.856-1.464-9.692-2.198-14.503-2.198
		c-0.586,0-1.444,0.023-2.575,0.064l-0.313,1.444c8.036,2.553,13.458,5.839,16.261,9.857c-6.863,1.59-11.637,3.077-14.313,4.459
		c-5.273,2.762-8.477,6.884-9.607,12.369c-0.627,3.013-0.941,6.906-0.941,11.678c0,1.214,0.041,3.955,0.127,8.226
		c-1.759-0.253-3.643-0.378-5.652-0.378c-4.396,0-8.539,0.669-12.433,2.009c-5.734,1.969-9.754,5.003-12.055,9.105
		c-1.297,2.345-1.945,4.771-1.945,7.282c0,2.261,0.543,4.377,1.632,6.343c1.13,2.092,2.74,3.83,4.836,5.21
		c3.976,2.636,9.04,3.956,15.193,3.956c3.807,0,7.263-0.48,10.36-1.443c3.264-0.963,5.86-2.366,7.786-4.208
		c3.013-2.887,4.519-6.695,4.519-11.427c0-0.669-0.019-1.423-0.062-2.261c5.272,2.889,9.88,6.531,13.813,10.927
		c1.382,1.508,2.43,2.489,3.14,2.948c0.631,0.379,1.298,0.566,2.01,0.566c1.424,0,2.597-0.794,3.515-2.386
		c0.796-1.381,1.195-3.139,1.195-5.274c0-4.604-2.033-8.413-6.089-11.427c-4.355-3.181-10.593-5.901-18.711-8.162
		c-2.306-10.926-3.455-18.501-3.455-22.73c0-2.595,0.543-4.54,1.632-5.837c1.464-1.761,4.541-2.639,9.229-2.639
		c3.057,0,5.735,0.335,8.039,1.003c1.884,0.546,3.808,1.53,5.774,2.953c1.592,1.131,2.954,1.693,4.082,1.693
		c1.801,0,3.201-0.711,4.207-2.131c0.92-1.259,1.381-2.891,1.381-4.899C284.953,104.416,284.263,102.383,282.882,100.501z
		 M242.823,149.726c0,3.476-0.669,6.111-2.009,7.911c-2.344,3.1-6.992,4.646-13.938,4.646c-4.144,0-7.283-0.71-9.42-2.135
		c-1.673-1.171-2.512-2.783-2.512-4.834c0-0.712,0.127-1.422,0.377-2.136c0.882-2.259,2.868-4.018,5.965-5.272
		c2.847-1.09,6.238-1.633,10.172-1.633c4.102,0,7.889,0.564,11.365,1.694V149.726z"/>
</g>
</svg>
